<?xml version="1.0" encoding="UTF-8" standalone="no"?>
<!-- Generator: Adobe Illustrator 27.5.0, SVG Export Plug-In . SVG Version: 6.00 Build 0)  -->

<svg
   version="1.1"
   id="Layer_1"
   x="0px"
   y="0px"
   viewBox="0 0 355 259"
   xml:space="preserve"
   sodipodi:docname="ProjetoEletrico2.svg"
   width="355"
   height="259"
   inkscape:version="1.3.2 (091e20e, 2023-11-25, custom)"
   xmlns:inkscape="http://www.inkscape.org/namespaces/inkscape"
   xmlns:sodipodi="http://sodipodi.sourceforge.net/DTD/sodipodi-0.dtd"
   xmlns="http://www.w3.org/2000/svg"
   xmlns:svg="http://www.w3.org/2000/svg"><defs
   id="defs146" /><sodipodi:namedview
   id="namedview146"
   pagecolor="#ffffff"
   bordercolor="#000000"
   borderopacity="0.25"
   inkscape:showpageshadow="2"
   inkscape:pageopacity="0.0"
   inkscape:pagecheckerboard="0"
   inkscape:deskcolor="#d1d1d1"
   inkscape:zoom="1.416"
   inkscape:cx="250"
   inkscape:cy="249.64689"
   inkscape:window-width="2560"
   inkscape:window-height="1009"
   inkscape:window-x="1912"
   inkscape:window-y="-8"
   inkscape:window-maximized="1"
   inkscape:current-layer="Layer_1" />
<g
   id="g146"
   transform="translate(-72.500001,-120.49998)">
	<g
   id="g6">
		<g
   id="g2">
			<g
   id="g1">
				<path
   style="fill:#cbe9f4"
   d="m 172.625,241.863 c -0.353,8.425 -7.479,14.946 -15.901,14.581 -8.428,-0.365 -14.959,-7.479 -14.609,-15.911 0.378,-8.419 7.501,-14.94 15.913,-14.584 8.432,0.363 14.959,7.482 14.597,15.914 z"
   id="path1" />
			</g>
		</g>
		<g
   id="g3">
			<path
   style="fill:#cbe9f4"
   d="m 210.473,232.719 c -4.805,-4.28 -7.354,-11.557 -6.398,-17.725 0.599,-3.856 11.443,-10.571 11.443,-10.571 l -16.181,-17.584 c 0,0 -7.593,10.289 -11.474,10.556 -5.938,0.433 -12.653,-2.616 -16.266,-7.575 -2.297,-3.156 0.675,-15.564 0.675,-15.564 l -23.902,-1.028 c 0,0 1.873,12.631 -0.666,15.56 -3.528,4.053 -9.81,6.113 -14.943,5.085 -3.826,-0.758 -10.009,-11.916 -10.009,-11.916 l -18.311,15.379 c 0,0 9.911,8.032 10.015,11.916 0.157,6.528 -3.31,13.73 -8.784,17.63 -3.178,2.266 -15.576,-0.866 -15.576,-0.866 L 88.757,249.9 c 0,0 12.631,-1.735 15.524,0.85 4.808,4.302 7.363,11.578 6.408,17.737 -0.592,3.85 -11.458,10.562 -11.458,10.562 l 16.181,17.584 c 0,0 7.587,-10.28 11.48,-10.55 5.923,-0.424 12.662,2.631 16.282,7.568 2.29,3.163 -0.66,15.56 -0.66,15.56 l 23.884,1.032 c 0,0 -1.895,-12.625 0.651,-15.56 3.537,-4.044 9.834,-6.113 14.968,-5.082 3.81,0.771 10.003,11.919 10.003,11.919 l 18.305,-15.382 c 0,0 -9.902,-8.035 -10.022,-11.922 -0.147,-6.521 3.313,-13.718 8.79,-17.627 3.178,-2.251 15.585,0.881 15.585,0.881 l 1.32,-23.878 c -0.002,0.002 -12.615,1.715 -15.525,-0.873 z m -54.787,48.048 c -21.848,-0.943 -38.803,-19.423 -37.854,-41.277 0.946,-21.848 19.42,-38.797 41.274,-37.86 21.836,0.949 38.815,19.426 37.854,41.277 -0.94,21.851 -19.407,38.802 -41.274,37.86 z"
   id="path2" />
		</g>
		<g
   id="g5">
			<g
   id="g4">
				<path
   style="fill:#cbe9f4"
   d="m 187.633,243.045 c -0.716,16.703 -14.839,29.659 -31.548,28.929 -16.693,-0.721 -29.644,-14.836 -28.922,-31.529 0.715,-16.718 14.836,-29.663 31.538,-28.95 16.705,0.727 29.659,14.85 28.932,31.55 z"
   id="path3" />
			</g>
		</g>
	</g>
	<g
   id="g59">
		<g
   id="g7">
			<rect
   x="347.22501"
   y="149.03799"
   style="fill:#64b4d7"
   width="61.814999"
   height="227.60001"
   id="rect6" />
		</g>
		<g
   id="g8">
			<rect
   x="238.084"
   y="149.03799"
   style="fill:#c1e4fa"
   width="109.141"
   height="227.60001"
   id="rect7" />
		</g>
		<g
   id="g9">
			<rect
   x="363.62"
   y="317.181"
   style="fill:#848fb7"
   width="29.018"
   height="48.944"
   id="rect8" />
		</g>
		<g
   id="g10">
			<rect
   x="367.207"
   y="322.397"
   style="fill:#464f72"
   width="21.851999"
   height="2.125"
   id="rect9" />
		</g>
		<g
   id="g11">
			<rect
   x="367.207"
   y="326.112"
   style="fill:#464f72"
   width="21.851999"
   height="2.128"
   id="rect10" />
		</g>
		<g
   id="g12">
			<rect
   x="367.207"
   y="329.91599"
   style="fill:#464f72"
   width="21.851999"
   height="2.128"
   id="rect11" />
		</g>
		<g
   id="g13">
			<rect
   x="367.207"
   y="333.63101"
   style="fill:#464f72"
   width="21.851999"
   height="2.131"
   id="rect12" />
		</g>
		<g
   id="g14">
			<rect
   x="367.207"
   y="337.41699"
   style="fill:#464f72"
   width="21.851999"
   height="2.125"
   id="rect13" />
		</g>
		<g
   id="g15">
			<rect
   x="367.207"
   y="341.13199"
   style="fill:#464f72"
   width="21.851999"
   height="2.128"
   id="rect14" />
		</g>
		<g
   id="g16">
			<rect
   x="367.207"
   y="344.936"
   style="fill:#464f72"
   width="21.851999"
   height="2.125"
   id="rect15" />
		</g>
		<g
   id="g17">
			<rect
   x="367.207"
   y="348.65201"
   style="fill:#464f72"
   width="21.851999"
   height="2.131"
   id="rect16" />
		</g>
		<g
   id="g18">
			<rect
   x="367.207"
   y="353.17099"
   style="fill:#464f72"
   width="21.851999"
   height="2.128"
   id="rect17" />
		</g>
		<g
   id="g19">
			<rect
   x="367.207"
   y="356.97501"
   style="fill:#464f72"
   width="21.851999"
   height="2.125"
   id="rect18" />
		</g>
		<g
   id="g20">
			<rect
   x="367.207"
   y="360.69"
   style="fill:#464f72"
   width="21.851999"
   height="2.131"
   id="rect19" />
		</g>
		<g
   id="g24">
			<g
   id="g21">
				<polygon
   style="fill:#6d76a1"
   points="378.131,180.668 363.255,210.423 393.009,210.423 "
   id="polygon20" />
			</g>
			<g
   id="g22">
				<polygon
   style="fill:#ffcf03"
   points="366.132,208.405 390.129,208.405 378.131,185.037 "
   id="polygon21" />
			</g>
			<g
   id="g23">
				<polygon
   style="fill:#6d76a1"
   points="378.078,199.587 377.342,190.3 377.296,202.403 379.494,199.348 380.571,206.462 380.799,195.912 "
   id="polygon22" />
			</g>
		</g>
		<g
   id="g25">
			<rect
   x="250.35001"
   y="167.856"
   style="fill:#6d76a1"
   width="83.356003"
   height="34.811001"
   id="rect24" />
		</g>
		<g
   id="g26">
			<rect
   x="254.599"
   y="171.964"
   style="fill:#464f72"
   width="60.393002"
   height="17.409"
   id="rect25" />
		</g>
		<g
   id="g27">
			<rect
   x="250.35001"
   y="211.23599"
   style="fill:#6d76a1"
   width="83.356003"
   height="9.4530001"
   id="rect26" />
		</g>
		<g
   id="g28">
			<rect
   x="327.46399"
   y="231.948"
   style="fill:#6d76a1"
   width="6.2420001"
   height="34.643002"
   id="rect27" />
		</g>
		<g
   id="g29">
			<rect
   x="316.35901"
   y="231.948"
   style="fill:#6d76a1"
   width="6.2480001"
   height="34.643002"
   id="rect28" />
		</g>
		<g
   id="g30">
			<rect
   x="305.25699"
   y="231.948"
   style="fill:#6d76a1"
   width="6.2420001"
   height="34.643002"
   id="rect29" />
		</g>
		<g
   id="g31">
			<rect
   x="294.151"
   y="231.948"
   style="fill:#6d76a1"
   width="6.2480001"
   height="34.643002"
   id="rect30" />
		</g>
		<g
   id="g32">
			<rect
   x="284.784"
   y="231.948"
   style="fill:#6d76a1"
   width="6.2480001"
   height="34.643002"
   id="rect31" />
		</g>
		<g
   id="g33">
			<rect
   x="273.681"
   y="231.948"
   style="fill:#6d76a1"
   width="6.2480001"
   height="34.643002"
   id="rect32" />
		</g>
		<g
   id="g34">
			<rect
   x="262.582"
   y="231.948"
   style="fill:#6d76a1"
   width="6.2420001"
   height="34.643002"
   id="rect33" />
		</g>
		<g
   id="g35">
			<rect
   x="251.47701"
   y="231.948"
   style="fill:#6d76a1"
   width="6.2480001"
   height="34.643002"
   id="rect34" />
		</g>
		<g
   id="g36">
			<rect
   x="254.20599"
   y="262.836"
   style="fill:#6d76a1"
   width="0.78600001"
   height="69.208"
   id="rect35" />
		</g>
		<g
   id="g37">
			<rect
   x="265.30899"
   y="262.836"
   style="fill:#6d76a1"
   width="0.78600001"
   height="69.208"
   id="rect36" />
		</g>
		<g
   id="g38">
			<rect
   x="276.41101"
   y="262.836"
   style="fill:#6d76a1"
   width="0.78600001"
   height="69.208"
   id="rect37" />
		</g>
		<g
   id="g39">
			<rect
   x="287.51599"
   y="262.836"
   style="fill:#6d76a1"
   width="0.78600001"
   height="69.208"
   id="rect38" />
		</g>
		<g
   id="g40">
			<rect
   x="296.884"
   y="262.836"
   style="fill:#6d76a1"
   width="0.78600001"
   height="69.208"
   id="rect39" />
		</g>
		<g
   id="g41">
			<rect
   x="307.98599"
   y="262.836"
   style="fill:#6d76a1"
   width="0.78600001"
   height="69.208"
   id="rect40" />
		</g>
		<g
   id="g42">
			<rect
   x="319.08801"
   y="262.836"
   style="fill:#6d76a1"
   width="0.78600001"
   height="69.208"
   id="rect41" />
		</g>
		<g
   id="g43">
			<rect
   x="330.19"
   y="262.836"
   style="fill:#6d76a1"
   width="0.78600001"
   height="69.208"
   id="rect42" />
		</g>
		<g
   id="g44">
			<rect
   x="250.35001"
   y="331.298"
   style="fill:#6d76a1"
   width="83.356003"
   height="4.1939998"
   id="rect43" />
		</g>
		<g
   id="g45">
			<path
   style="fill:#6d76a1"
   d="m 330.86,236.124 -0.046,-6.07 c -0.006,-0.749 -0.301,-1.468 -0.81,-1.971 -0.448,-0.442 -1.026,-0.685 -1.631,-0.685 -0.006,0 -0.012,0 -0.018,0 l -10.396,0.077 c -0.967,0.015 -1.986,-0.412 -2.711,-1.176 -0.712,-0.752 -1.108,-1.75 -1.115,-2.813 l -0.055,-7.531 1.572,-0.012 0.055,7.531 c 0.003,0.663 0.249,1.283 0.685,1.744 0.418,0.442 0.964,0.685 1.541,0.685 0.006,0 0.009,0 0.015,0 l 10.396,-0.077 c 0.013,0 0.022,0 0.034,0 1.016,0 1.986,0.402 2.733,1.136 0.804,0.795 1.271,1.916 1.277,3.08 l 0.046,6.07 z"
   id="path44" />
		</g>
		<g
   id="g46">
			<path
   style="fill:#6d76a1"
   d="m 308.443,236.115 -0.043,-6.073 c -0.006,-0.725 -0.273,-1.403 -0.749,-1.907 -0.457,-0.485 -1.059,-0.749 -1.692,-0.749 -0.009,0 -0.015,0 -0.021,0 l -10.393,0.077 c -0.012,0 -0.021,0 -0.034,0 -1.01,0 -1.962,-0.418 -2.681,-1.176 -0.709,-0.749 -1.105,-1.747 -1.115,-2.809 l -0.052,-7.535 1.572,-0.012 0.052,7.535 c 0.006,0.663 0.249,1.28 0.685,1.741 0.421,0.448 1.068,0.734 1.56,0.685 l 10.393,-0.077 c 0.012,0 0.021,0 0.034,0 1.068,0 2.076,0.439 2.834,1.24 0.752,0.792 1.17,1.852 1.179,2.975 l 0.043,6.073 z"
   id="path45" />
		</g>
		<g
   id="g47">
			<path
   style="fill:#6d76a1"
   d="m 287.391,236.109 -0.043,-6.073 c -0.012,-1.468 -0.989,-2.656 -2.183,-2.656 -0.003,0 -0.009,0 -0.012,0 l -9.53,0.071 c -0.009,0 -0.018,0 -0.025,0 -0.86,0 -1.686,-0.35 -2.33,-0.986 -0.768,-0.755 -1.213,-1.852 -1.222,-3.006 l -0.059,-7.529 1.572,-0.012 0.059,7.528 c 0.006,0.74 0.279,1.431 0.752,1.898 0.249,0.245 0.66,0.534 1.228,0.534 0.003,0 0.006,0 0.012,0 l 9.53,-0.071 c 0.009,0 0.019,0 0.025,0 2.054,0 3.737,1.885 3.755,4.215 l 0.043,6.073 z"
   id="path46" />
		</g>
		<g
   id="g48">
			<path
   style="fill:#6d76a1"
   d="m 265.634,236.118 -0.043,-6.07 c -0.006,-0.746 -0.227,-1.468 -0.611,-1.974 -0.193,-0.258 -0.602,-0.684 -1.176,-0.684 -0.003,0 -0.006,0 -0.009,0 l -8.253,0.058 c -0.009,0 -0.015,0 -0.025,0 -0.709,0 -1.403,-0.301 -1.959,-0.847 -0.768,-0.756 -1.213,-1.904 -1.219,-3.147 l -0.061,-7.528 1.572,-0.012 0.061,7.531 c 0.003,0.816 0.285,1.578 0.752,2.039 0.181,0.178 0.479,0.393 0.856,0.393 0.003,0 0.006,0 0.009,0 l 8.253,-0.058 c 0.009,0 0.015,0 0.025,0 0.915,0 1.802,0.476 2.428,1.311 0.59,0.783 0.918,1.815 0.928,2.908 l 0.043,6.07 z"
   id="path47" />
		</g>
		<g
   id="g49">
			<rect
   x="250.35001"
   y="342.19199"
   style="fill:#6d76a1"
   width="83.356003"
   height="13.107"
   id="rect48" />
		</g>
		<g
   id="g50">
			<rect
   x="327.46399"
   y="280.51501"
   style="fill:#6d76a1"
   width="6.2420001"
   height="9.0109997"
   id="rect49" />
		</g>
		<g
   id="g51">
			<rect
   x="316.35901"
   y="306.048"
   style="fill:#6d76a1"
   width="6.2480001"
   height="9.0109997"
   id="rect50" />
		</g>
		<g
   id="g52">
			<rect
   x="305.25699"
   y="285.01901"
   style="fill:#6d76a1"
   width="6.2420001"
   height="9.0109997"
   id="rect51" />
		</g>
		<g
   id="g53">
			<rect
   x="294.15399"
   y="318.95499"
   style="fill:#6d76a1"
   width="6.2449999"
   height="9.0109997"
   id="rect52" />
		</g>
		<g
   id="g54">
			<rect
   x="284.784"
   y="276.008"
   style="fill:#6d76a1"
   width="6.2480001"
   height="9.0109997"
   id="rect53" />
		</g>
		<g
   id="g55">
			<rect
   x="263.298"
   y="280.51501"
   style="fill:#6d76a1"
   width="6.2480001"
   height="9.0109997"
   id="rect54" />
		</g>
		<g
   id="g56">
			<rect
   x="251.47701"
   y="314.448"
   style="fill:#6d76a1"
   width="6.2480001"
   height="9.0109997"
   id="rect55" />
		</g>
		<g
   id="g57">
			<rect
   x="344.21899"
   y="170.994"
   style="fill:#c1e4fa"
   width="4.0009999"
   height="55.016998"
   id="rect56" />
		</g>
		<g
   id="g58">
			<rect
   x="344.21899"
   y="297.15601"
   style="fill:#c1e4fa"
   width="4.0009999"
   height="55.016998"
   id="rect57" />
		</g>
	</g>
	<g
   id="g62">
		<g
   id="g60">
			<path
   style="fill:#fbc6b4"
   d="m 207.54,225.056 c 1.093,-1.41 5.57,-4.295 10.025,-1.904 5.953,3.199 13.568,14.691 22.886,14.388 9.361,-0.316 12.293,-5.892 14.765,-9.358 2.456,-3.485 1.799,-6.024 3.466,-7.885 1.661,-1.873 3.786,0.193 1.176,6.718 -1.243,3.126 -5.56,19.278 -16.607,21.701 -14.476,3.18 -42.109,-15.278 -35.711,-23.66 z"
   id="path59" />
		</g>
		<g
   id="g61">
			<path
   style="fill:#eda503"
   d="m 208.99,221.85 c 0,0 -5.566,4.882 1.468,13.371 7.037,8.49 11.274,11.219 11.274,11.219 0,0 6.659,-2.775 12.103,-12.693 0,10e-4 -17.996,-19.898 -24.845,-11.897 z"
   id="path60" />
		</g>
	</g>
	<g
   id="g63">
		<path
   style="fill:#ffb502"
   d="m 186.441,238.829 c 4.129,15.266 1.851,25.997 0,31.812 4.308,1.385 1.741,3.694 1.624,3.985 -6.092,12.644 31.778,5.152 38.431,-5.085 2.29,-3.519 0.101,-7.989 0.51,-14.747 0.147,-1.52 0.187,-3.058 0.203,-4.566 0.187,-6.923 -0.28,-13.681 -1.253,-18.281 -2.972,-13.952 -16.095,-14.633 -24.081,-13.519 -3.626,0.501 -8.354,1.115 -11.987,3.251 l -0.018,0.028 c -4.233,2.566 -6.499,5.771 -3.429,17.122 z"
   id="path62" />
	</g>
	<g
   id="g64">
		<path
   style="fill:#1c2745"
   d="m 195.824,231.344 c 1.636,6.93 7.489,28.078 -9.383,38.655 0,0 27.937,20.457 43.921,2.76 0,0 -3.215,-30.194 -7.682,-42.183 -1.28,-3.445 -4.688,-14.022 -10.82,-12.493 0,0 10.78,16.979 5.861,21.462 -4.919,4.489 -9.561,0.715 -11.732,-2.662 -3.479,-5.434 -7.194,-18.001 -7.194,-18.001 l -6.521,1.658 c 0.001,-0.001 2.156,4.897 3.55,10.804 z"
   id="path63" />
	</g>
	<g
   id="g68">
		<g
   id="g65">
			<path
   style="fill:#f7b2a0"
   d="m 201.203,208.316 c 0,0 3.58,5.625 -0.227,9.374 -3.915,3.838 14.074,10.62 13.202,7.166 -1.115,-4.461 -3.77,-6.844 -2.232,-12.327 z"
   id="path64" />
		</g>
		<g
   id="g66">
			<path
   style="fill:#fbc6b4"
   d="m 209.29,195.706 c 4.326,3.135 10.51,18.557 6.924,22.594 -1.584,1.759 -9.054,0.958 -14.538,-5.468 -2.257,-2.622 -5.284,-7.731 -3.074,-13.528 1.014,-2.634 5.669,-7.239 10.688,-3.598 z"
   id="path65" />
		</g>
		<g
   id="g67">
			<path
   style="fill:#1d1b3a"
   d="m 213.463,197.128 c 1.105,1.894 0.921,2.383 -4.989,4.077 -5.898,1.695 -6.994,1.425 -6.196,2.775 2.346,4.001 -2.057,3.724 0.798,8.465 2.843,4.759 -2.607,2.352 -5.358,-1.483 -0.54,-0.777 -3.601,-4.495 -1.471,-11.13 2.47,-7.748 13.12,-9.646 17.216,-2.704 z"
   id="path66" />
		</g>
	</g>
	<g
   id="g69">
		<path
   style="fill:#eda503"
   d="m 201.483,207.493 c 0,0 18.293,-5.167 17.443,-10.869 -0.525,-3.516 -11.142,-2.137 -11.142,-2.137 z"
   id="path68" />
	</g>
	<g
   id="g70">
		<path
   style="fill:#ffb502"
   d="m 213.463,197.128 c -1.462,5.502 -5.778,8.529 -16.991,12.109 0,0 -6.067,-10.872 1.796,-16.632 6.945,-5.069 16.129,1.001 15.195,4.523 z"
   id="path69" />
	</g>
	<g
   id="g75">
		<g
   id="g71">
			<path
   style="fill:#fbc6b4"
   d="m 176.656,328.814 c -3.792,14.836 -8.238,46.518 -0.952,46.7 7.277,0.166 11.348,-2.042 7.151,-3.214 -4.2,-1.185 -4.369,-1.643 -4.24,-2.822 1.805,-15.303 25.732,-39.162 27.765,-57.35 0.684,-6.211 1.154,-11.891 1.477,-16.878 2.723,13.322 0.722,27.461 0.958,32.137 0.768,16.629 4.323,48.063 12.293,48.127 8.49,0.059 12.659,-2.294 7.234,-3.414 -4.691,-0.992 -4.495,-1.21 -4.409,-2.37 1.142,-16.792 9.285,-47.833 10.844,-67.78 1.806,-23.022 -54.82,13.892 -58.121,26.864 z"
   id="path70" />
		</g>
		<g
   id="g72">
			<path
   style="fill:#ffb502"
   d="m 216.638,371.731 c 0,0 6.331,2.509 10.24,0 0,0 7.138,0.961 2.659,2.699 -4.505,1.741 -13.166,3.178 -12.899,-2.699 z"
   id="path71" />
		</g>
		<g
   id="g73">
			<path
   style="fill:#ffb502"
   d="m 172.612,372.299 c 0,0 6.337,2.499 10.243,0 0,0 7.142,0.973 2.637,2.699 -4.488,1.741 -13.144,3.184 -12.88,-2.699 z"
   id="path72" />
		</g>
		<g
   id="g74">
			<path
   style="fill:#1c2745"
   d="m 229.146,262.836 c -14.513,9.681 -34.805,8.695 -42.705,7.163 -2.137,17.264 -15.109,82.036 -16.574,90.924 6.371,2.112 8.49,2.558 10.332,2.558 30.762,-39.672 27.231,-56.687 27.556,-61.673 1.157,5.763 -2.641,33.988 4,61.673 2.226,1.437 8.971,3.304 13.798,0 0.242,-1.772 9.269,-33.565 9.073,-58.453 -0.134,-16.966 -2.971,-28.612 -5.48,-42.192 z"
   id="path73" />
		</g>
	</g>
	<g
   id="g77">
		<g
   id="g76">
			<path
   style="fill:#ffffff"
   d="m 187.454,284.623 c 9.021,-2.862 9.816,-11.784 9.825,-11.87 l -1.197,-0.089 c -0.022,0.323 -0.752,8.204 -8.996,10.823 z"
   id="path75" />
		</g>
	</g>
	<g
   id="g79">
		<g
   id="g78">
			<path
   style="fill:#ffffff"
   d="m 229.686,282.4 0.365,-1.145 c -8.265,-2.616 -8.99,-10.737 -8.996,-10.82 l -1.2,0.092 c 0.013,0.095 0.808,9.015 9.831,11.873 z"
   id="path77" />
		</g>
	</g>
	<g
   id="g80">
		<rect
   x="72.953003"
   y="342.67999"
   style="fill:#c1e4fa"
   width="63.278999"
   height="36.551998"
   id="rect79" />
	</g>
	<g
   id="g81">
		<rect
   x="136.23199"
   y="342.67999"
   style="fill:#4ca1bf"
   width="24.549999"
   height="36.551998"
   id="rect80" />
	</g>
	<g
   id="g82">
		<rect
   x="76.772003"
   y="331.224"
   style="fill:#c1e4fa"
   width="9.0880003"
   height="17.82"
   id="rect81" />
	</g>
	<g
   id="g83">
		<rect
   x="81.316002"
   y="333.76999"
   style="fill:#464f72"
   width="67.646004"
   height="2.1830001"
   id="rect82" />
	</g>
	<g
   id="g84">
		<rect
   x="144.41701"
   y="331.224"
   style="fill:#4ca1bf"
   width="9.0880003"
   height="17.82"
   id="rect83" />
	</g>
	<g
   id="g90">
		<g
   id="g85">
			<rect
   x="163.033"
   y="274.34399"
   style="fill:#c1e4fa"
   width="51.835999"
   height="29.938999"
   id="rect84" />
		</g>
		<g
   id="g86">
			<rect
   x="214.869"
   y="274.34399"
   style="fill:#4ca1bf"
   width="20.108"
   height="29.938999"
   id="rect85" />
		</g>
		<g
   id="g87">
			<rect
   x="166.162"
   y="264.961"
   style="fill:#c1e4fa"
   width="7.4450002"
   height="14.596"
   id="rect86" />
		</g>
		<g
   id="g88">
			<rect
   x="169.886"
   y="267.04501"
   style="fill:#464f72"
   width="55.41"
   height="1.7869999"
   id="rect87" />
		</g>
		<g
   id="g89">
			<rect
   x="221.57201"
   y="264.961"
   style="fill:#4ca1bf"
   width="7.4450002"
   height="14.596"
   id="rect88" />
		</g>
	</g>
	<g
   id="g93">
		<g
   id="g91">
			<path
   style="fill:#fbc6b4"
   d="m 192.376,223.048 c 1.624,0.525 4.621,3.165 3.85,7.924 -1.022,6.371 -9.005,16.822 -5.815,25.127 3.202,8.33 9.146,9.236 13.046,10.381 3.906,1.13 5.984,-0.246 8.185,0.66 2.207,0.918 1.007,3.488 -5.689,3.169 -3.205,-0.157 -19.113,1.004 -24.75,-8.201 -7.387,-12.051 1.627,-42.211 11.173,-39.06 z"
   id="path90" />
		</g>
		<g
   id="g92">
			<path
   style="fill:#eda503"
   d="m 192.275,220.539 c 0,0 -4.415,-0.826 -9.871,8.183 -5.444,8.984 -6.58,13.654 -6.58,13.654 0,0 4.581,5.139 15.216,6.954 0,0 11.984,-23.525 1.235,-28.791 z"
   id="path91" />
		</g>
	</g>
	<g
   id="g95">
		<g
   id="g94">
			<path
   style="fill:#64b4d7"
   d="m 420.409,279.569 c -3.66,0 -6.638,-2.978 -6.638,-6.632 0,-3.66 2.978,-6.632 6.638,-6.632 3.663,0 6.638,2.972 6.638,6.632 0,3.654 -2.975,6.632 -6.638,6.632 z m 0,-10.307 c -2.026,0 -3.678,1.649 -3.678,3.675 0,2.023 1.652,3.672 3.678,3.672 2.03,0 3.678,-1.649 3.678,-3.672 0,-2.026 -1.648,-3.675 -3.678,-3.675 z"
   id="path93" />
		</g>
	</g>
	<g
   id="g102">
		<g
   id="g98">
			<g
   id="g97">
				<g
   id="g96">
					
						<rect
   x="206.925"
   y="161.21201"
   transform="matrix(0.7016,-0.7126,0.7126,0.7016,-57.6753,198.6945)"
   style="fill:#ffb502"
   width="2.9579999"
   height="14"
   id="rect95" />
				</g>
			</g>
		</g>
		<g
   id="g101">
			<g
   id="g100">
				<g
   id="g99">
					
						<rect
   x="201.48199"
   y="166.735"
   transform="matrix(0.7061,-0.7081,0.7081,0.7061,-57.863,197.0155)"
   style="fill:#ffb502"
   width="13.849"
   height="2.957"
   id="rect98" />
				</g>
			</g>
		</g>
	</g>
	<g
   id="g124">
		<g
   id="g105">
			<g
   id="g104">
				<g
   id="g103">
					<path
   style="fill:#fbe366"
   d="m 324.59,126.246 1.286,-1.425 c 0,0 -0.639,-0.635 -1.277,-1.265 -0.593,-0.688 -1.191,-1.369 -1.191,-1.369 l -1.489,1.207 c 0,0 0.635,0.734 1.277,1.474 0.701,0.691 1.394,1.378 1.394,1.378 z"
   id="path102" />
				</g>
			</g>
		</g>
		<g
   id="g108">
			<g
   id="g107">
				<g
   id="g106">
					<path
   style="fill:#fbe366"
   d="m 329.884,129.157 0.405,-1.882 c 0,0 -0.814,-0.172 -1.575,-0.534 -0.387,-0.187 -0.768,-0.372 -1.032,-0.568 -0.273,-0.178 -0.454,-0.295 -0.454,-0.295 l -1.09,1.587 c 0,0 0.212,0.135 0.531,0.338 0.307,0.227 0.765,0.458 1.24,0.676 0.931,0.454 1.975,0.678 1.975,0.678 z"
   id="path105" />
				</g>
			</g>
		</g>
		<g
   id="g111">
			<g
   id="g110">
				<g
   id="g109">
					<path
   style="fill:#fbe366"
   d="m 335.932,128.365 -0.765,-1.759 c 0,0 -0.807,0.372 -1.63,0.574 -0.823,0.233 -1.652,0.249 -1.652,0.249 l 0.061,1.919 c 0.003,0 1.069,-0.025 2.066,-0.307 1.008,-0.255 1.92,-0.676 1.92,-0.676 z"
   id="path108" />
				</g>
			</g>
		</g>
		<g
   id="g114">
			<g
   id="g113">
				<g
   id="g112">
					<path
   style="fill:#fbe366"
   d="m 340.909,125.498 -1.032,-1.615 c 0,0 -0.792,0.501 -1.581,1.004 -0.786,0.47 -1.569,0.937 -1.569,0.937 l 0.937,1.679 c 0,0 0.826,-0.494 1.661,-0.988 0.789,-0.508 1.584,-1.017 1.584,-1.017 z"
   id="path111" />
				</g>
			</g>
		</g>
		<g
   id="g117">
			<g
   id="g116">
				<g
   id="g115">
					<path
   style="fill:#fbe366"
   d="m 345.625,123.038 -0.577,-1.833 c 0,0 -0.976,0.323 -1.87,0.756 -0.887,0.439 -1.713,0.933 -1.713,0.933 l 0.976,1.658 c 0,0 0.786,-0.467 1.575,-0.863 0.802,-0.387 1.609,-0.651 1.609,-0.651 z"
   id="path114" />
				</g>
			</g>
		</g>
		<g
   id="g120">
			<g
   id="g119">
				<g
   id="g118">
					<path
   style="fill:#fbe366"
   d="m 350.375,123.268 0.792,-1.744 c 0,-0.006 -0.955,-0.457 -2.011,-0.629 -1.047,-0.215 -2.116,-0.092 -2.116,-0.092 l 0.178,1.913 c 0,0 0.813,-0.101 1.602,0.068 0.796,0.131 1.555,0.484 1.555,0.484 z"
   id="path117" />
				</g>
			</g>
		</g>
		<g
   id="g123">
			<g
   id="g122">
				<g
   id="g121">
					<path
   style="fill:#fbe366"
   d="m 354.382,126.48 1.443,-1.268 c 0,0 -0.669,-0.715 -1.366,-1.421 -0.381,-0.319 -0.758,-0.648 -1.044,-0.89 -0.295,-0.233 -0.516,-0.365 -0.516,-0.365 l -1.102,1.572 c 0,0 0.181,0.107 0.436,0.313 0.252,0.209 0.583,0.494 0.915,0.78 0.623,0.628 1.234,1.279 1.234,1.279 z"
   id="path120" />
				</g>
			</g>
		</g>
	</g>
	<g
   id="g139">
		<g
   id="g126">
			<g
   id="g125">
				
					<rect
   x="419.815"
   y="184.672"
   transform="matrix(1,-0.0047,0.0047,1,-0.8733,1.9707)"
   style="fill:#1c2745"
   width="2.6300001"
   height="6.2509999"
   id="rect124" />
			</g>
		</g>
		<g
   id="g128">
			<g
   id="g127">
				
					<rect
   x="419.862"
   y="193.981"
   transform="matrix(1,-0.0047,0.0047,1,-0.9179,1.9734)"
   style="fill:#1c2745"
   width="2.628"
   height="6.2509999"
   id="rect126" />
			</g>
		</g>
		<g
   id="g130">
			<g
   id="g129">
				
					<rect
   x="419.909"
   y="203.287"
   transform="matrix(1,-0.0047,0.0047,1,-0.9603,1.9713)"
   style="fill:#1c2745"
   width="2.6300001"
   height="6.2509999"
   id="rect128" />
			</g>
		</g>
		<g
   id="g132">
			<g
   id="g131">
				
					<rect
   x="419.95499"
   y="212.599"
   transform="matrix(1,-0.0059,0.0059,1,-1.2554,2.4693)"
   style="fill:#1c2745"
   width="2.631"
   height="6.25"
   id="rect130" />
			</g>
		</g>
		<g
   id="g134">
			<g
   id="g133">
				
					<rect
   x="420.00201"
   y="221.90601"
   transform="matrix(1,-0.0047,0.0047,1,-1.0472,1.9717)"
   style="fill:#1c2745"
   width="2.6300001"
   height="6.2509999"
   id="rect132" />
			</g>
		</g>
		<g
   id="g136">
			<g
   id="g135">
				
					<rect
   x="420.04999"
   y="231.218"
   transform="matrix(1,-0.0059,0.0059,1,-1.3643,2.4701)"
   style="fill:#1c2745"
   width="2.6300001"
   height="6.25"
   id="rect134" />
			</g>
		</g>
		<g
   id="g138">
			<g
   id="g137">
				
					<rect
   x="420.09601"
   y="240.524"
   transform="matrix(1,-0.0035,0.0035,1,-0.8493,1.4749)"
   style="fill:#1c2745"
   width="2.6300001"
   height="6.25"
   id="rect136" />
			</g>
		</g>
	</g>
	<g
   id="g142">
		<g
   id="g141">
			<g
   id="g140">
				<rect
   x="101.531"
   y="314.31601"
   style="fill:#27355c"
   width="27.218"
   height="2.1029999"
   id="rect139" />
			</g>
		</g>
	</g>
	<g
   id="g145">
		<g
   id="g144">
			<g
   id="g143">
				<rect
   x="112.158"
   y="307.44199"
   style="fill:#27355c"
   width="15.005"
   height="2.1029999"
   id="rect142" />
			</g>
		</g>
	</g>
</g>
</svg>
