<svg viewBox="0 0 61 61">
   <path
     d="M 47.337,44.637 V 32.925 c 0,-6.275 -3.35,-9.195 -7.816,-9.195 -3.604,0 -5.219,1.983 -6.119,3.374 V 24.21 h -6.79 c 0.09,1.917 0,20.427 0,20.427 h 6.79 V 33.229 c 0,-0.609 0.044,-1.219 0.224,-1.655 0.49,-1.22 1.607,-2.483 3.482,-2.483 2.458,0 3.44,1.873 3.44,4.618 v 10.929 h 6.789 z M 19.459,21.422 c 2.367,0 3.842,-1.57 3.842,-3.531 -0.044,-2.003 -1.475,-3.528 -3.797,-3.528 -2.322,0 -3.841,1.524 -3.841,3.528 0,1.961 1.474,3.531 3.753,3.531 z m 3.395,23.215 V 24.21 H 16.065 V 44.637 Z M 0.5,0.5 h 60 v 60 h -60 z"
     />
     </svg>
