<svg width="1921" height="377">
  <g id="map">
    <path
       d="m 1474.0858,268.99331 h -45.1365 V 166.9469 157.79371 c 0,-10.46665 -3.1673,-18.08746 -9.4816,-22.89665 -6.3347,-4.78866 -13.4151,-7.18983 -21.2616,-7.18983 -7.8535,0 -14.8312,2.40117 -20.9333,7.18983 -6.109,4.80919 -9.1532,12.43 -9.1532,22.89665 v 111.1996 h -45.7934 V 166.9469 c 0,-29.64866 7.7372,-49.48057 23.2251,-59.52308 15.4743,-10.021989 32.5903,-15.474227 51.3481,-16.356707 10.022,0 19.8388,1.094547 29.4366,3.276814 9.5773,2.189103 18.3133,6.546783 26.1529,13.079893 6.5537,-5.65746 14.2908,-9.700465 23.2251,-12.101637 8.941,-2.387491 18.2106,-3.810403 27.8084,-4.25507 19.1821,0 36.8385,5.028097 52.9764,15.043247 16.1241,10.04251 24.2101,30.31908 24.2101,60.83654 v 102.04641 h -22.9036 c -6.5331,0 -11.8827,-2.06596 -16.0215,-6.21158 -4.1524,-4.14561 -6.2116,-9.48839 -6.2116,-16.02834 v -88.95968 c 0,-10.46665 -3.1673,-18.08746 -9.4814,-22.89665 -6.3348,-4.78866 -13.4152,-7.18983 -21.2618,-7.18983 -7.8533,0 -14.9474,2.40117 -21.2548,7.18983 -6.3346,4.80919 -9.4884,12.43 -9.4884,22.89665 v 9.15319 z"/>
    <path
       d="m 1700.5588,181.33684 c -6.109,3.0579 -14.6055,5.89005 -25.5099,8.51013 l -15.0433,3.26998 c -7.8466,2.18226 -13.5176,5.01441 -17.0066,8.50329 -3.0442,4.80235 -4.5697,9.59101 -4.5697,14.38652 0,6.53994 1.9496,11.77327 5.8764,15.69997 3.9335,3.49573 9.5979,5.24017 17.0133,5.24017 12.1907,0 21.8022,-3.48889 28.7799,-10.47349 6.9709,-6.96409 10.4599,-16.56878 10.4599,-28.77987 z m 10.4734,80.46322 c -9.1668,4.80234 -18.8673,7.73711 -29.115,8.83166 -10.2478,1.08087 -19.2915,1.62815 -27.1448,1.62815 -15.6864,0 -29.4367,-4.24823 -41.2099,-12.74469 -11.7733,-8.51014 -17.6633,-22.56828 -17.6633,-42.19496 0,-18.32006 5.3426,-31.39995 16.035,-39.25336 10.672,-7.84656 24.306,-13.07989 40.8816,-15.69313 2.1823,0 4.7887,-0.32837 7.8466,-0.9851 3.0442,-0.65673 6.5468,-1.19032 10.4598,-1.62814 19.1888,-2.62009 28.7799,-8.28439 28.7799,-17.01344 0,-6.54679 -3.3795,-10.79501 -10.1247,-12.75837 -6.7725,-1.95651 -12.9909,-2.9416 -18.6552,-2.9416 -6.1021,0 -11.5544,0.88248 -16.3498,2.62008 -4.8024,1.74444 -8.2844,5.02125 -10.4667,9.80992 h -43.8232 c 1.7376,-13.51087 7.8603,-24.63425 18.3201,-33.3633 11.7732,-10.02199 28.5542,-15.04324 50.3699,-15.04324 24.4085,0 42.7285,4.152449 54.9396,12.43 12.6421,8.72904 18.9768,20.93329 18.9768,36.63327 v 59.52308 c 0,17.45126 -3.1811,31.07158 -9.4884,40.8815 -6.3347,9.80992 -13.8529,16.90398 -22.5683,21.26167"/>
    <path
       d="m 1875.3634,182.64619 c 0,-16.99975 -3.263,-30.08648 -9.8098,-39.23967 -6.5468,-9.16003 -15.9258,-13.73662 -28.1232,-13.73662 -11.7732,0 -20.9334,4.57659 -27.4732,13.73662 -6.1159,8.28439 -9.16,21.36428 -9.16,39.23967 0,16.58246 3.2698,29.00562 9.8166,37.29001 6.5332,9.15318 15.9122,13.73662 28.1232,13.73662 11.3355,0 20.2698,-4.58344 26.8166,-13.73662 6.5468,-9.16003 9.8098,-21.59003 9.8098,-37.29001 m -74.5662,128.21304 c 0,6.09528 -2.1823,11.3286 -6.5332,15.69998 -4.3714,4.344 -9.5979,6.5331 -15.7,6.5331 h -22.2467 V 170.22303 c 0,-30.51746 8.9343,-51.34815 26.8301,-62.46469 17.8618,-11.12338 37.2695,-16.691907 58.2096,-16.691907 10.8908,0 21.9116,2.086486 33.0282,6.218418 11.1302,4.152459 19.9482,10.138289 26.4949,17.991689 13.0868,17.0066 19.6199,38.81554 19.6199,65.41314 0,27.46641 -6.5331,49.70633 -19.6199,66.71976 -13.0935,16.58246 -29.8744,24.85316 -50.3699,24.85316 -10.9044,0 -20.509,-1.96335 -28.7798,-5.88321 -8.7222,-4.35084 -15.6999,-11.12338 -20.9332,-20.28341 z"/>
  </g>
  <g id="nucleo">
    <path
       d="m 565.80296,268.99331 h -22.9035 c -6.53994,0 -11.88272,-2.06596 -16.01465,-6.21158 -4.1593,-4.14561 -6.21843,-9.48839 -6.21843,-16.02834 v -88.95968 c 0,-10.46665 -3.1742,-18.08746 -9.48155,-22.89665 -6.33472,-4.78866 -13.41509,-7.18983 -21.26166,-7.18983 -7.8534,0 -14.83118,2.40117 -20.9333,7.18983 -6.10897,4.80919 -9.15319,12.43 -9.15319,22.89665 v 111.1996 h -45.7933 V 166.9469 c 0,-29.64866 7.73712,-49.48057 23.21817,-59.52308 15.48107,-10.021989 32.59712,-15.474227 51.355,-16.356707 19.18202,0 36.84534,5.028097 52.96946,15.043247 16.13095,10.04251 24.21695,30.31908 24.21695,60.83654 z"/>
    <path
       d="m 702.00759,38.090817 -39.8964,41.203029 h -20.93331 l 18.31323,-33.363308 c 0.43097,-1.299774 1.86073,-2.93476 4.25506,-4.898107 2.39434,-1.96336 5.56168,-2.941614 9.48155,-2.941614 z m 29.44344,56.903 V 197.03339 c 0,30.97581 -8.07916,51.25922 -24.20328,60.83654 -16.14463,9.59785 -33.80796,14.38652 -52.98314,14.38652 -18.75786,-0.8688 -35.88076,-6.09529 -51.34814,-15.69314 -15.49475,-9.58416 -23.22502,-29.43659 -23.22502,-59.52992 V 94.993817 h 45.78646 V 206.20026 c 0,10.46665 3.05106,18.10115 9.16002,22.88981 6.10214,4.80919 13.0799,7.20352 20.93331,7.20352 7.84656,0 14.93379,-2.39433 21.25483,-7.20352 6.31419,-4.78866 9.48839,-12.42316 9.48839,-22.88981 v -88.96652 c 0,-6.09529 2.06597,-11.33545 6.21158,-15.69314 4.13878,-4.350838 9.48155,-6.546783 16.02834,-6.546783 z"/>
    <path
       d="m 866.3504,215.35413 h 32.70657 c -4.80918,18.32006 -13.96237,32.28243 -27.46641,41.85976 -13.52455,10.04251 -30.53115,15.04324 -51.03346,15.04324 -24.84632,0 -44.26777,-8.05179 -58.20963,-24.19643 -13.96237,-15.69997 -20.93329,-38.1588 -20.93329,-67.36965 0,-27.90422 6.75885,-49.71317 20.27656,-65.41314 13.94869,-16.124112 33.36331,-24.210117 58.20963,-24.210117 26.17345,0 46.45003,7.853413 60.84338,23.553387 7.85341,9.59785 13.50404,20.71439 16.99976,33.35646 h -45.78646 c -2.18227,-4.344 -4.35769,-7.62082 -6.53995,-9.80992 -5.67114,-6.10212 -13.72978,-9.15319 -24.20328,-9.15319 -9.591,0 -17.44441,3.05107 -23.54653,9.15319 -7.85342,8.72905 -11.77327,23.1224 -11.77327,43.16638 0,20.07134 3.91985,34.24578 11.77327,42.52333 5.66431,6.9846 14.1676,10.46665 25.50989,10.46665 7.41559,0 13.73662,-1.51869 18.97679,-4.5766 1.30661,-0.43098 2.49695,-1.19716 3.59149,-2.28487 1.08087,-1.08771 2.29172,-2.29172 3.59834,-3.60518 0.8688,-1.30662 2.61325,-3.04422 5.23333,-5.22649 2.62008,-2.18226 6.53311,-3.27681 11.77327,-3.27681"/>
    <path
       d="m 914.90539,43.976764 h 23.55339 c 6.10896,0 11.33544,2.079654 15.69997,6.211587 4.35768,4.152454 6.53309,9.276321 6.53309,15.371601 V 268.99605 h -45.78645 z"/>
    <path
       d="m 1017.7597,164.33434 h 66.7266 c -0.8825,-11.78011 -3.9267,-20.48863 -9.1668,-26.16662 -5.6643,-6.10212 -13.7367,-9.15319 -24.1965,-9.15319 -9.591,0 -17.4512,3.05107 -23.5397,9.15319 -6.1226,6.11581 -9.3994,14.83118 -9.8236,26.16662 m 78.4999,51.01979 h 32.7066 c -4.8092,18.32006 -13.9624,32.28243 -27.4733,41.85976 -13.5177,10.04251 -30.5311,15.04324 -51.0266,15.04324 -24.8532,0 -44.2609,-8.05179 -58.21647,-24.19643 -13.96237,-15.69997 -20.93329,-38.1588 -20.93329,-67.36965 0,-27.90422 6.75885,-49.71317 20.2834,-65.41314 13.94866,-16.124112 33.36326,-24.210117 58.21646,-24.210117 26.1598,0 46.4432,7.853413 60.8297,23.553387 13.9487,16.14464 20.9402,38.58978 20.9402,67.36965 v 4.58343 2.62009 c 0,2.18226 -0.2326,3.70779 -0.6568,4.57659 h -113.1698 c 0.4242,13.51771 3.701,23.54654 9.8236,30.08649 5.6507,6.9846 14.1608,10.46665 25.5031,10.46665 7.4156,0 13.7366,-1.51869 18.9699,-4.5766 1.3135,-0.43098 2.5038,-1.19716 3.5984,-2.28487 1.0808,-1.08771 2.2848,-2.29172 3.5915,-3.60518 0.4309,-1.30662 2.0728,-3.04422 4.9049,-5.22649 2.8322,-2.18226 6.8683,-3.27681 12.1085,-3.27681"/>
    <path
       d="m 1198.4572,138.16635 c -9.1532,10.04251 -13.3057,24.96946 -12.4232,44.81505 0.8688,19.83875 4.5835,33.68482 11.1166,41.53139 2.6132,3.49572 7.1966,6.43733 13.7297,8.83166 6.5468,2.40118 13.1894,2.61325 19.9482,0.64989 6.7657,-1.95651 12.7653,-6.86831 17.9986,-14.71487 5.2265,-7.85341 8.0586,-20.49548 8.4964,-37.9399 0,-15.69313 -2.5106,-27.47324 -7.5182,-35.31981 -5.0144,-7.85341 -10.795,-12.85414 -17.3281,-15.04324 -6.5468,-2.17542 -13.0799,-2.29856 -19.6267,-0.33521 -6.5399,1.97019 -11.3491,4.48082 -14.3933,7.52504 m -31.4,115.12631 c -9.1531,-7.84657 -15.6999,-18.41583 -19.6266,-31.72832 -3.9131,-13.29196 -5.8764,-27.13804 -5.8764,-41.53139 0,-11.78011 1.6281,-23.54654 4.8981,-35.31981 3.2768,-11.78011 8.3938,-21.59003 15.3785,-29.4366 11.3354,-13.08673 25.9408,-20.823841 43.8299,-23.218173 17.8617,-2.394334 33.9995,-0.991934 48.3929,4.248228 16.5687,6.539945 28.7798,17.889075 36.6332,34.020035 7.4156,14.38651 11.1166,31.17419 11.1166,50.36305 0,13.95553 -1.5324,25.94772 -4.5698,35.97654 -3.0579,10.02883 -6.9914,18.53897 -11.7801,25.50306 -10.4598,14.39335 -23.7723,23.34131 -39.9032,26.82335 -14.3865,3.91986 -28.8962,4.25507 -43.5016,0.9851 -14.6123,-3.27682 -26.2624,-8.83167 -34.9915,-16.68507"/>
  </g>
  <g id="description">
    <path
       d="m 418.76295,338.39815 5.8148,-40.59417 h 0.65673 l 16.49352,33.30172 16.34303,-33.30172 h 0.65673 l 5.83534,40.59417 h -3.98144 l -4.00879,-29.03297 -14.34547,29.03297 h -1.03298 l -14.52334,-29.24505 -3.98826,29.24505 z"/>
    <path
       d="m 493.15825,311.32783 c -2.14806,0 -4.13878,0.5336 -5.95847,1.58709 -1.81969,1.06035 -3.26313,2.54484 -4.344,4.45347 -1.06719,1.90863 -1.60079,3.92669 -1.60079,6.05424 0,2.12069 0.5336,4.13878 1.61447,6.06108 1.08771,1.94283 2.54484,3.43415 4.37137,4.50818 1.82654,1.08088 3.78988,1.61446 5.88322,1.61446 2.12069,0 4.11824,-0.53358 6.00634,-1.60762 1.89495,-1.05351 3.35207,-2.49695 4.37136,-4.30979 1.01931,-1.81969 1.52554,-3.87883 1.52554,-6.15002 0,-3.4752 -1.14244,-6.36892 -3.42731,-8.70853 -2.29172,-2.3396 -5.10335,-3.50256 -8.44173,-3.50256 m 15.43317,-2.95529 v 30.02492 h -3.8104 v -5.17176 c -1.61447,1.97704 -3.43416,3.46152 -5.45224,4.45347 -2.01124,0.99877 -4.21403,1.49132 -6.59467,1.49132 -4.25508,0 -7.88761,-1.54606 -10.89078,-4.61764 -3.01003,-3.09211 -4.50819,-6.83411 -4.50819,-11.25337 0,-4.31664 1.51184,-8.01758 4.54923,-11.08917 3.03053,-3.07159 6.6836,-4.6108 10.95236,-4.6108 2.45589,0 4.68604,0.51992 6.69728,1.58027 1.99072,1.03981 3.742,2.61324 5.24701,4.71341 v -5.52065 z"/>
    <path
       d="m 538.50621,311.32783 c -2.14805,0 -4.13194,0.5336 -5.95847,1.58709 -1.81969,1.06035 -3.26313,2.54484 -4.33716,4.45347 -1.07403,1.90863 -1.61447,3.92669 -1.61447,6.05424 0,2.12069 0.54044,4.13878 1.62815,6.06108 1.08087,1.94283 2.538,3.43415 4.37137,4.50818 1.8197,1.08088 3.78305,1.61446 5.88322,1.61446 2.11385,0 4.11824,-0.53358 6.00635,-1.60762 1.8881,-1.05351 3.34522,-2.49695 4.36452,-4.30979 1.0193,-1.81969 1.53237,-3.87883 1.53237,-6.15002 0,-3.4752 -1.14928,-6.36892 -3.43415,-8.70853 -2.28488,-2.3396 -5.10334,-3.50256 -8.44173,-3.50256 m 15.43317,-2.95529 v 41.00464 h -3.8104 V 333.2257 c -1.61446,1.97704 -3.43416,3.46152 -5.4454,4.45347 -2.01124,0.99877 -4.21402,1.49132 -6.6015,1.49132 -4.25509,0 -7.88762,-1.54606 -10.89079,-4.61764 -3.01003,-3.09211 -4.50819,-6.83411 -4.50819,-11.25337 0,-4.31664 1.51184,-8.01758 4.54923,-11.08917 3.03737,-3.07159 6.69044,-4.6108 10.95236,-4.6108 2.46273,0 4.69972,0.51992 6.69728,1.58027 1.99072,1.03981 3.742,2.61324 5.24701,4.71341 v -5.52065 z"/>
    <path
       d="m 568.88958,308.37528 h 3.8583 v 14.01711 c 0,3.42047 0.19154,5.77375 0.56096,7.0667 0.54728,1.83337 1.60078,3.29049 3.15368,4.35768 1.56657,1.06718 3.41362,1.60078 5.57537,1.60078 2.14805,0 3.98143,-0.51992 5.47959,-1.55973 1.50501,-1.04667 2.538,-2.40801 3.11264,-4.10457 0.38309,-1.14928 0.58148,-3.60518 0.58148,-7.36086 v -14.01711 h 3.94722 v 14.7354 c 0,4.13194 -0.4857,7.25825 -1.45712,9.35158 -0.96457,2.10017 -2.4217,3.72832 -4.35769,4.91864 -1.93599,1.19033 -4.37136,1.79233 -7.29244,1.79233 -2.92793,0 -5.37015,-0.602 -7.31981,-1.79233 -1.9702,-1.19032 -3.42048,-2.83215 -4.39874,-4.95284 -0.96457,-2.12753 -1.44344,-5.33595 -1.44344,-9.59786 z"/>
    <path
       d="m 609.93869,308.37528 h 3.8583 v 30.02493 h -3.8583 z m 1.91547,-12.3616 c 0.87564,0 1.62815,0.3147 2.25067,0.93722 0.62937,0.62937 0.93721,1.38186 0.93721,2.25752 0,0.8688 -0.30784,1.61445 -0.93721,2.24382 -0.62252,0.62936 -1.37503,0.93722 -2.25067,0.93722 -0.86196,0 -1.60763,-0.30786 -2.22331,-0.93722 -0.62253,-0.62937 -0.94405,-1.37502 -0.94405,-2.24382 0,-0.87566 0.32152,-1.62815 0.94405,-2.25752 0.61568,-0.62252 1.36135,-0.93722 2.22331,-0.93722"/>
    <path
       d="m 628.6008,308.37528 h 3.86513 v 5.38383 c 1.54606,-2.05912 3.2563,-3.60519 5.13071,-4.62448 1.87443,-1.02615 3.92671,-1.53237 6.12949,-1.53237 2.24383,0 4.23455,0.57464 5.97215,1.71024 1.7376,1.14928 3.01685,2.68165 3.84461,4.6108 0.8346,1.93598 1.24506,4.93916 1.24506,9.01636 v 15.46055 h -3.8583 v -14.32495 c 0,-3.46152 -0.1505,-5.77376 -0.43098,-6.92304 -0.4515,-1.99072 -1.30662,-3.48888 -2.57903,-4.48766 -1.26559,-1.00562 -2.92793,-1.49817 -4.96653,-1.49817 -2.33276,0 -4.4261,0.76619 -6.27315,2.31224 -1.85389,1.55289 -3.07159,3.46152 -3.65991,5.7464 -0.36941,1.48448 -0.55412,4.20717 -0.55412,8.16124 v 11.01394 h -3.86513 z"/>
    <path
       d="m 684.31758,311.32783 c -2.14806,0 -4.13194,0.5336 -5.95163,1.58709 -1.82653,1.06035 -3.26997,2.54484 -4.344,4.45347 -1.07403,1.90863 -1.60763,3.92669 -1.60763,6.05424 0,2.12069 0.54044,4.13878 1.62131,6.06108 1.08772,1.94283 2.54484,3.43415 4.37137,4.50818 1.8197,1.08088 3.78304,1.61446 5.88322,1.61446 2.11385,0 4.11824,-0.53358 6.00634,-1.60762 1.88811,-1.05351 3.34523,-2.49695 4.37136,-4.30979 1.01931,-1.81969 1.52554,-3.87883 1.52554,-6.15002 0,-3.4752 -1.14928,-6.36892 -3.43415,-8.70853 -2.28488,-2.3396 -5.10335,-3.50256 -8.44173,-3.50256 m 15.43317,-2.95529 v 30.02492 h -3.8104 v -5.17176 c -1.61447,1.97704 -3.43416,3.46152 -5.4454,4.45347 -2.01124,0.99877 -4.21403,1.49132 -6.60151,1.49132 -4.25508,0 -7.88077,-1.54606 -10.89078,-4.61764 -3.01003,-3.09211 -4.50819,-6.83411 -4.50819,-11.25337 0,-4.31664 1.51184,-8.01758 4.55607,-11.08917 3.03053,-3.07159 6.6836,-4.6108 10.94552,-4.6108 2.46273,0 4.69972,0.51992 6.69728,1.58027 1.99072,1.03981 3.73516,2.61324 5.24701,4.71341 v -5.52065 z"/>
    <path
       d="m 730.31338,311.66235 -2.47643,2.56536 c -2.0728,-2.0044 -4.09088,-3.00319 -6.06108,-3.00319 -1.25873,0 -2.33276,0.41047 -3.22892,1.23822 -0.89616,0.82776 -1.33399,1.79233 -1.33399,2.88688 0,0.97825 0.36942,1.90862 1.10139,2.7911 0.73883,0.89618 2.28488,1.96336 4.64501,3.16736 2.88004,1.49818 4.82971,2.92794 5.8627,4.31664 1.01929,1.38871 1.51868,2.96898 1.51868,4.71342 0,2.46273 -0.86196,4.54923 -2.59956,6.25947 -1.72392,1.71024 -3.88566,2.5722 -6.49206,2.5722 -1.72392,0 -3.37942,-0.3831 -4.95969,-1.1356 -1.57341,-0.75935 -2.87319,-1.7855 -3.90617,-3.12632 l 2.42169,-2.75006 c 1.97704,2.23015 4.07036,3.33838 6.27999,3.33838 1.55289,0 2.86636,-0.49255 3.95406,-1.49132 1.08772,-0.99194 1.63499,-2.1549 1.63499,-3.50256 0,-1.10824 -0.36257,-2.0865 -1.08087,-2.9553 -0.71829,-0.84144 -2.3396,-1.90863 -4.86392,-3.19472 -2.71585,-1.4024 -4.54922,-2.77743 -5.53432,-4.13877 -0.97825,-1.36135 -1.46396,-2.91424 -1.46396,-4.66554 0,-2.28486 0.77987,-4.17981 2.3396,-5.67798 1.55974,-1.505 3.5231,-2.27119 5.8969,-2.27119 2.77058,0 5.54801,1.35451 8.34596,4.06352"/>
    <path
       d="m 747.77626,330.94219 3.71464,1.76496 -5.58905,10.43246 -2.73639,-1.16296 z"/>
    <path
       d="m 805.48992,306.43792 -6.95725,14.68067 h 13.88029 z m 0.50622,-8.63328 18.93575,40.59419 h -4.38505 l -6.3826,-13.36037 h -17.47862 l -6.32788,13.36037 h -4.52187 l 19.17518,-40.59419 z"/>
    <path
       d="m 836.86934,308.37528 h 3.8583 v 14.01711 c 0,3.42047 0.1847,5.77375 0.55412,7.0667 0.55412,1.83337 1.60762,3.29049 3.16736,4.35768 1.55289,1.06718 3.40678,1.60078 5.56853,1.60078 2.15489,0 3.97459,-0.51992 5.48643,-1.55973 1.49133,-1.04667 2.538,-2.40801 3.09896,-4.10457 0.38309,-1.14928 0.58832,-3.60518 0.58832,-7.36086 v -14.01711 h 3.94038 v 14.7354 c 0,4.13194 -0.47886,7.25825 -1.44344,9.35158 -0.97825,2.10017 -2.42169,3.72832 -4.37137,4.91864 -1.93599,1.19033 -4.36452,1.79233 -7.2856,1.79233 -2.92793,0 -5.36331,-0.602 -7.32665,-1.79233 -1.96336,-1.19032 -3.42048,-2.83215 -4.3919,-4.95284 -0.96457,-2.12753 -1.44344,-5.33595 -1.44344,-9.59786 z"/>
    <path
       d="m 881.86293,297.23206 h 3.8583 v 11.1439 h 6.12265 v 3.33838 h -6.12265 v 26.68653 h -3.8583 v -26.68653 h -5.27437 v -3.33838 h 5.27437 z"/>
    <path
       d="m 918.62003,311.38119 c -3.22208,0 -5.97215,1.19032 -8.28439,3.55729 -2.31224,2.37382 -3.46152,5.247 -3.46152,8.61275 0,2.16859 0.51991,4.20035 1.58025,6.06792 1.05351,1.86759 2.46959,3.32471 4.25508,4.344 1.79232,1.02615 3.76252,1.53238 5.91058,1.53238 2.13437,0 4.10457,-0.50623 5.89005,-1.53238 1.79233,-1.01929 3.2084,-2.47641 4.26191,-4.344 1.06034,-1.86757 1.58026,-3.89933 1.58026,-6.06792 0,-3.36575 -1.14928,-6.23893 -3.4752,-8.61275 -2.31224,-2.36697 -5.0623,-3.55729 -8.25702,-3.55729 m 0.0137,-3.78304 c 4.62448,0 8.45541,1.66919 11.49279,5.02809 2.76374,3.05791 4.13877,6.66308 4.13877,10.84975 0,4.17982 -1.45712,7.8534 -4.37136,10.97972 -2.92108,3.13999 -6.67676,4.71342 -11.2602,4.71342 -4.6108,0 -8.38016,-1.57343 -11.28756,-4.71342 -2.92792,-3.12632 -4.38505,-6.7999 -4.38505,-10.97972 0,-4.17299 1.37504,-7.76448 4.13877,-10.82239 3.04423,-3.37258 6.882,-5.05545 11.53384,-5.05545"/>
    <path
       d="m 948.17155,308.37528 h 3.86513 v 5.18544 c 1.33399,-1.90862 2.7227,-3.31786 4.13878,-4.1935 1.9565,-1.17664 4.0088,-1.76496 6.16369,-1.76496 1.45028,0 2.83216,0.29416 4.13877,0.85512 1.31347,0.57464 2.38066,1.33398 3.2084,2.28488 0.82776,0.93036 1.55291,2.29854 2.14807,4.05668 1.28609,-2.34646 2.88688,-4.13878 4.81603,-5.35647 1.93598,-1.22453 4.00878,-1.84021 6.22525,-1.84021 2.06597,0 3.89935,0.5199 5.48644,1.57341 1.59395,1.04667 2.77059,2.51063 3.54361,4.38505 0.75935,1.88126 1.14928,4.68604 1.14928,8.44172 v 16.39777 h -3.94038 v -16.39777 c 0,-3.22208 -0.22575,-5.42486 -0.6841,-6.64254 -0.47202,-1.19718 -1.23821,-2.16175 -2.34644,-2.89374 -1.11508,-0.73881 -2.44906,-1.10822 -3.98828,-1.10822 -1.86757,0 -3.57781,0.54728 -5.1307,1.6555 -1.54606,1.10824 -2.66798,2.57904 -3.39311,4.40558 -0.70463,1.84705 -1.06719,4.91864 -1.06719,9.2216 v 11.75959 h -3.85829 v -15.37846 c 0,-3.62571 -0.2326,-6.0816 -0.68411,-7.38139 -0.45149,-1.29293 -1.23136,-2.33276 -2.35328,-3.11262 -1.12192,-0.78671 -2.45589,-1.1698 -4.0088,-1.1698 -1.7718,0 -3.44782,0.5336 -4.99388,1.61446 -1.56658,1.06719 -2.71586,2.52431 -3.46152,4.344 -0.73198,1.81286 -1.10824,4.60396 -1.10824,8.35964 v 12.72417 h -3.86513 z"/>
    <path
       d="m 1022.4499,311.32783 c -2.1481,0 -4.1388,0.5336 -5.9585,1.58709 -1.8197,1.06035 -3.2631,2.54484 -4.344,4.45347 -1.0672,1.90863 -1.6008,3.92669 -1.6008,6.05424 0,2.12069 0.5336,4.13878 1.6145,6.06108 1.0945,1.94283 2.5517,3.43415 4.3714,4.50818 1.8265,1.08088 3.7898,1.61446 5.89,1.61446 2.1139,0 4.1183,-0.53358 5.9995,-1.60762 1.895,-1.05351 3.3521,-2.49695 4.3714,-4.30979 1.0261,-1.81969 1.5324,-3.87883 1.5324,-6.15002 0,-3.4752 -1.1493,-6.36892 -3.4342,-8.70853 -2.2849,-2.3396 -5.1033,-3.50256 -8.4417,-3.50256 m 15.4331,-2.95529 v 30.02492 h -3.8104 v -5.17176 c -1.6144,1.97704 -3.4341,3.46152 -5.4522,4.45347 -2.0044,0.99877 -4.2072,1.49132 -6.5947,1.49132 -4.255,0 -7.8876,-1.54606 -10.8907,-4.61764 -3.0101,-3.09211 -4.5082,-6.83411 -4.5082,-11.25337 0,-4.31664 1.5118,-8.01758 4.5492,-11.08917 3.0305,-3.07159 6.6904,-4.6108 10.9524,-4.6108 2.4558,0 4.6928,0.51992 6.6972,1.58027 1.9908,1.03981 3.742,2.61324 5.247,4.71341 v -5.52065 z"/>
    <path
       d="m 1066.7286,338.39815 h 2.4285 l -0.4652,3.28366 c 0.431,-0.0616 0.7731,-0.0889 1.0535,-0.0889 0.8962,0 1.6487,0.28048 2.2576,0.84144 0.602,0.56096 0.9098,1.26558 0.9098,2.10702 0,1.21768 -0.5473,2.25066 -1.6555,3.10578 -1.0945,0.84144 -2.6611,1.26558 -4.6655,1.26558 -1.6282,0 -3.1605,-0.28048 -4.604,-0.82775 l 0.6089,-1.90863 c 1.1766,0.36942 2.278,0.54727 3.3178,0.54727 1.3751,0 2.3396,-0.16417 2.8869,-0.50623 0.561,-0.3352 0.8209,-0.76618 0.8209,-1.28609 0,-0.30784 -0.1436,-0.58832 -0.4515,-0.82776 -0.2942,-0.23943 -0.7183,-0.36257 -1.2587,-0.36257 -0.4378,0 -1.0809,0.0957 -1.9155,0.25312 z m 15.7684,-23.78597 -3.0784,1.90178 c -2.6407,-3.51625 -6.2527,-5.26753 -10.8224,-5.26753 -3.6599,0 -6.6973,1.17664 -9.1122,3.52993 -2.4148,2.35328 -3.6188,5.2128 -3.6188,8.56487 0,2.18909 0.5472,4.24823 1.6692,6.17054 1.1082,1.93598 2.6337,3.43414 4.5697,4.48765 1.936,1.07403 4.1183,1.60763 6.5194,1.60763 4.4124,0 8.0039,-1.75128 10.7951,-5.26754 l 3.0784,2.0044 c -1.4435,2.16859 -3.3726,3.85146 -5.7875,5.04178 -2.4217,1.18349 -5.1717,1.78549 -8.2707,1.78549 -4.7407,0 -8.6743,-1.50501 -11.8006,-4.52871 -3.1263,-3.01685 -4.686,-6.69044 -4.686,-11.00708 0,-2.91425 0.7182,-5.61643 2.189,-8.09968 1.4572,-2.49695 3.4752,-4.43293 6.0269,-5.83533 2.5517,-1.38871 5.4112,-2.10018 8.5717,-2.10018 1.9976,0 3.9062,0.30784 5.767,0.90986 1.8402,0.61568 3.4067,1.40238 4.6997,2.38064 1.2861,0.97141 2.3806,2.21646 3.2905,3.72148"/>
    <path
       d="m 1119.8397,297.20538 1.9223,2.67481 c -1.3203,0.95773 -2.4286,1.61447 -3.3384,1.94967 -0.9235,0.3352 -1.8676,0.50622 -2.8869,0.50622 -1.3203,0 -2.6817,-0.34888 -4.0909,-1.02613 -1.1835,-0.58832 -1.9497,-0.92353 -2.2849,-1.01931 -0.4378,-0.13 -0.9166,-0.1847 -1.4366,-0.1847 -0.643,0 -1.245,0.10266 -1.8333,0.33521 -0.5815,0.23943 -1.4161,0.74565 -2.5243,1.55973 l -1.8197,-2.81846 c 1.6691,-1.79234 3.742,-2.69534 6.2115,-2.69534 1.1767,0 2.5791,0.37624 4.2141,1.13559 1.5597,0.73199 2.8047,1.09456 3.7009,1.09456 1.0125,0 2.4012,-0.50624 4.1662,-1.51185 m -8.6744,14.11972 c -2.148,0 -4.1456,0.54042 -5.9584,1.59393 -1.8129,1.05351 -3.2563,2.538 -4.3372,4.44661 -1.074,1.91547 -1.6076,3.92671 -1.6076,6.05424 0,2.12754 0.5336,4.13878 1.6213,6.06793 1.0808,1.93598 2.538,3.43416 4.3645,4.50134 1.8334,1.08087 3.7967,1.61447 5.8832,1.61447 2.1207,0 4.1114,-0.5336 6.0064,-1.60079 1.9018,-1.0535 3.3589,-2.49694 4.3713,-4.31664 1.0193,-1.81969 1.5256,-3.87197 1.5256,-6.14317 0,-3.4752 -1.1356,-6.37576 -3.4205,-8.71536 -2.2986,-2.3396 -5.1033,-3.50256 -8.4486,-3.50256 m 15.4332,-2.94846 v 30.01809 h -3.8036 v -5.16492 c -1.6213,1.97704 -3.4341,3.45468 -5.4522,4.44661 -2.0181,0.99879 -4.2209,1.49817 -6.6015,1.49817 -4.2482,0 -7.8808,-1.55289 -10.8908,-4.62448 -3.0032,-3.08526 -4.515,-6.82726 -4.515,-11.25336 0,-4.3098 1.5255,-8.01075 4.556,-11.08917 3.0306,-3.07159 6.6837,-4.60396 10.9593,-4.60396 2.4558,0 4.686,0.5199 6.6904,1.57341 1.9907,1.03983 3.742,2.62009 5.2538,4.71341 v -5.5138 z"/>
    <path
       d="m 1156.2622,311.38119 c -3.2084,0 -5.9721,1.19032 -8.2707,3.55729 -2.3122,2.37382 -3.4615,5.247 -3.4615,8.61275 0,2.16859 0.5199,4.20035 1.5803,6.06792 1.0398,1.86759 2.4695,3.32471 4.2619,4.344 1.7855,1.02615 3.7557,1.53238 5.89,1.53238 2.1344,0 4.1046,-0.50623 5.9038,-1.53238 1.7923,-1.01929 3.2084,-2.47641 4.2619,-4.344 1.0466,-1.86757 1.5802,-3.89933 1.5802,-6.06792 0,-3.36575 -1.1629,-6.23893 -3.4752,-8.61275 -2.3259,-2.36697 -5.076,-3.55729 -8.2707,-3.55729 m 0.014,-3.78304 c 4.6176,0 8.4554,1.66919 11.5064,5.02809 2.7638,3.05791 4.1388,6.66308 4.1388,10.84975 0,4.17982 -1.4571,7.8534 -4.385,10.97972 -2.9074,3.13999 -6.6631,4.71342 -11.2602,4.71342 -4.6108,0 -8.3665,-1.57343 -11.2876,-4.71342 -2.9142,-3.12632 -4.3919,-6.7999 -4.3919,-10.97972 0,-4.17299 1.3956,-7.76448 4.1593,-10.82239 3.0374,-3.37258 6.882,-5.05545 11.5202,-5.05545"/>
    <path
       d="m 1233.5437,320.34694 c -0.5199,-2.05912 -1.2724,-3.70095 -2.2575,-4.93232 -0.9783,-1.23822 -2.2849,-2.23015 -3.8993,-2.97582 -1.6213,-0.76618 -3.3316,-1.1356 -5.1239,-1.1356 -2.9348,0 -5.4728,0.94406 -7.5866,2.84584 -1.5461,1.37503 -2.709,3.44783 -3.5094,6.1979 z m 0,8.086 3.2563,1.71024 c -1.0672,2.09332 -2.3054,3.78988 -3.6941,5.07597 -1.4092,1.29295 -2.9827,2.2712 -4.7339,2.94162 -1.7513,0.67725 -3.7283,1.01245 -5.9311,1.01245 -4.905,0 -8.7291,-1.61445 -11.4928,-4.82287 -2.7638,-3.2084 -4.1388,-6.84094 -4.1388,-10.87711 0,-3.8104 1.1766,-7.2035 3.5094,-10.17932 2.9553,-3.79673 6.923,-5.69166 11.8964,-5.69166 5.117,0 9.2011,1.93598 12.2658,5.82164 2.1755,2.74322 3.27,6.16369 3.3111,10.26142 h -27.0149 c 0.082,3.48889 1.1903,6.34841 3.352,8.57855 2.1481,2.23015 4.8092,3.33838 7.9766,3.33838 1.5255,0 3.0237,-0.26679 4.4603,-0.80039 1.4434,-0.51991 2.6748,-1.22453 3.6941,-2.10701 1.0124,-0.88248 2.107,-2.29856 3.2836,-4.26191"/>
    <path
       d="m 1278.865,301.78814 v 13.76398 l 6.8683,0.0752 c 2.7774,0 4.8092,-0.25312 6.0953,-0.75934 1.2929,-0.49255 2.2917,-1.30663 3.0305,-2.44223 0.732,-1.12191 1.1083,-2.39432 1.1083,-3.78304 0,-1.36135 -0.3763,-2.6064 -1.1083,-3.742 -0.7388,-1.12191 -1.6965,-1.92231 -2.9005,-2.40117 -1.2177,-0.48571 -3.1811,-0.71146 -5.9174,-0.71146 z m -4.0635,-3.98143 h 8.086 c 4.6381,0 7.7576,0.20523 9.3789,0.61568 2.3259,0.56096 4.2072,1.7376 5.6917,3.5094 1.4639,1.77865 2.2028,4.0088 2.2028,6.69729 0,2.70218 -0.7183,4.93232 -2.1481,6.6836 -1.4434,1.75814 -3.4205,2.93478 -5.9311,3.55046 -1.847,0.44466 -5.2812,0.65673 -10.3161,0.65673 h -2.9006 v 18.88102 h -4.0635 z"/>
    <path
       d="m 1312.9493,308.37528 h 3.9541 v 4.38506 c 1.1766,-1.72392 2.4149,-3.02371 3.7146,-3.87883 1.3067,-0.85512 2.6748,-1.27925 4.0909,-1.27925 1.0672,0 2.2028,0.34889 3.4205,1.02614 l -2.0181,3.24944 c -0.8072,-0.34888 -1.4845,-0.5199 -2.0454,-0.5199 -1.2861,0 -2.5243,0.5336 -3.7147,1.58709 -1.204,1.05351 -2.1138,2.69533 -2.7432,4.91865 -0.4788,1.71023 -0.7046,5.17175 -0.7046,10.37771 v 10.15882 h -3.9541 z"/>
    <path
       d="m 1352.3922,311.38119 c -3.2221,0 -5.9721,1.19032 -8.2844,3.55729 -2.3122,2.37382 -3.4614,5.247 -3.4614,8.61275 0,2.16859 0.5198,4.20035 1.5802,6.06792 1.0535,1.86759 2.4696,3.32471 4.2619,4.344 1.7855,1.02615 3.7557,1.53238 5.9037,1.53238 2.1344,0 4.0978,-0.50623 5.89,-1.53238 1.7924,-1.01929 3.2084,-2.47641 4.262,-4.344 1.0603,-1.86757 1.5803,-3.89933 1.5803,-6.06792 0,-3.36575 -1.1493,-6.23893 -3.4752,-8.61275 -2.3123,-2.36697 -5.0624,-3.55729 -8.2571,-3.55729 m 0.013,-3.78304 c 4.6244,0 8.4553,1.66919 11.4928,5.02809 2.7637,3.05791 4.1386,6.66308 4.1386,10.84975 0,4.17982 -1.457,7.8534 -4.3713,10.97972 -2.9211,3.13999 -6.6768,4.71342 -11.2601,4.71342 -4.6108,0 -8.3803,-1.57343 -11.2876,-4.71342 -2.928,-3.12632 -4.3851,-6.7999 -4.3851,-10.97972 0,-4.17299 1.3751,-7.76448 4.1388,-10.82239 3.0511,-3.37258 6.882,-5.05545 11.5339,-5.05545"/>
    <path
       d="m 1396.4541,311.32783 c -2.1891,0 -4.2208,0.5336 -6.1021,1.58709 -1.8744,1.06035 -3.3384,2.51748 -4.4124,4.38506 -1.0672,1.86757 -1.6008,3.88565 -1.6008,6.05424 0,3.29733 1.1082,6.01319 3.311,8.16125 2.2096,2.16858 5.0691,3.23576 8.5786,3.23576 3.5573,0 6.4168,-1.06718 8.5648,-3.19472 2.1686,-2.13437 3.2494,-4.946 3.2494,-8.41436 0,-2.2712 -0.4925,-4.28928 -1.4844,-6.06792 -0.9988,-1.76497 -2.4081,-3.16736 -4.2209,-4.19351 -1.8333,-1.03298 -3.7831,-1.55289 -5.8832,-1.55289 m 11.4039,-2.95529 h 3.8582 v 23.91596 c 0,4.22771 -0.3762,7.29928 -1.1082,9.24896 -1.0192,2.76373 -2.7638,4.89127 -5.2675,6.37576 -2.5107,1.49132 -5.5139,2.24383 -9.03,2.24383 -2.5655,0 -4.8776,-0.37626 -6.9368,-1.09455 -2.0385,-0.73883 -3.7147,-1.71024 -5.0076,-2.94161 -1.286,-1.23138 -2.4696,-3.01686 -3.5572,-5.38383 h 4.2003 c 1.1356,1.99072 2.6133,3.46152 4.4193,4.41925 1.806,0.9509 4.0361,1.42976 6.7109,1.42976 2.627,0 4.8639,-0.49254 6.6631,-1.4708 1.8197,-0.97141 3.1127,-2.21646 3.8925,-3.70096 0.773,-1.47764 1.163,-3.88565 1.163,-7.18298 v -1.5529 c -1.4571,1.84706 -3.2358,3.26314 -5.336,4.23455 -2.0934,0.99193 -4.3303,1.48448 -6.6972,1.48448 -2.7502,0 -5.3566,-0.69777 -7.7714,-2.05912 -2.4285,-1.37504 -4.3166,-3.21525 -5.6369,-5.52749 -1.3272,-2.32592 -1.9908,-4.86391 -1.9908,-7.64818 0,-2.77743 0.6909,-5.37015 2.066,-7.75764 1.3819,-2.40801 3.2905,-4.30295 5.7328,-5.70535 2.4489,-1.3887 5.0144,-2.10017 7.7233,-2.10017 2.2439,0 4.344,0.46519 6.28,1.38872 1.936,0.9372 3.8242,2.47641 5.6302,4.59711 z"/>
    <path
       d="m 1425.3044,308.37528 h 3.9404 v 4.38506 c 1.1766,-1.72392 2.4217,-3.02371 3.7282,-3.87883 1.3067,-0.85512 2.6748,-1.27925 4.091,-1.27925 1.0672,0 2.2028,0.34889 3.4204,1.02614 l -2.018,3.24944 c -0.8142,-0.34888 -1.4846,-0.5199 -2.0455,-0.5199 -1.2861,0 -2.5243,0.5336 -3.7283,1.58709 -1.1904,1.05351 -2.1002,2.69533 -2.7228,4.91865 -0.4856,1.71023 -0.725,5.17175 -0.725,10.37771 v 10.15882 h -3.9404 z"/>
    <path
       d="m 1465.0133,311.32783 c -2.148,0 -4.1319,0.5336 -5.9448,1.58709 -1.8333,1.06035 -3.2768,2.54484 -4.344,4.45347 -1.0808,1.90863 -1.6144,3.92669 -1.6144,6.05424 0,2.12069 0.5472,4.13878 1.6281,6.06108 1.0808,1.94283 2.538,3.43415 4.3646,4.50818 1.8196,1.08088 3.7829,1.61446 5.8832,1.61446 2.1138,0 4.1182,-0.53358 6.0132,-1.60762 1.8812,-1.05351 3.3384,-2.49695 4.3713,-4.30979 1.0124,-1.81969 1.5187,-3.87883 1.5187,-6.15002 0,-3.4752 -1.1492,-6.36892 -3.4342,-8.70853 -2.2849,-2.3396 -5.1033,-3.50256 -8.4417,-3.50256 m 15.4332,-2.95529 v 30.02492 h -3.8104 v -5.17176 c -1.6145,1.97704 -3.4341,3.46152 -5.4385,4.45347 -2.0182,0.99877 -4.221,1.49132 -6.6084,1.49132 -4.2551,0 -7.874,-1.54606 -10.8908,-4.61764 -3.01,-3.09211 -4.5082,-6.83411 -4.5082,-11.25337 0,-4.31664 1.5119,-8.01758 4.556,-11.08917 3.0375,-3.07159 6.6836,-4.6108 10.9456,-4.6108 2.4695,0 4.6998,0.51992 6.6972,1.58027 1.9908,1.03981 3.7352,2.61324 5.2471,4.71341 v -5.52065 z"/>
    <path
       d="m 1495.8913,308.37528 h 3.8583 v 5.18544 c 1.3545,-1.90862 2.7296,-3.31786 4.1456,-4.1935 1.9497,-1.17664 4.0088,-1.76496 6.1569,-1.76496 1.4571,0 2.8457,0.29416 4.1456,0.85512 1.3065,0.57464 2.3737,1.33398 3.2084,2.28488 0.8277,0.93036 1.546,2.29854 2.1617,4.05668 1.2792,-2.34646 2.8868,-4.13878 4.8092,-5.35647 1.9223,-1.22453 3.9951,-1.84021 6.2252,-1.84021 2.066,0 3.9063,0.5199 5.4866,1.57341 1.5801,1.04667 2.7705,2.51063 3.5366,4.38505 0.7731,1.88126 1.1562,4.68604 1.1562,8.44172 v 16.39777 h -3.954 v -16.39777 c 0,-3.22208 -0.2258,-5.42486 -0.6774,-6.64254 -0.4582,-1.19718 -1.245,-2.16175 -2.3532,-2.89374 -1.1082,-0.73881 -2.4354,-1.10822 -3.9677,-1.10822 -1.8745,0 -3.5847,0.54728 -5.1308,1.6555 -1.5529,1.10824 -2.6884,2.57904 -3.3999,4.40558 -0.7184,1.84705 -1.0741,4.91864 -1.0741,9.2216 v 11.75959 h -3.8651 v -15.37846 c 0,-3.62571 -0.2257,-6.0816 -0.6636,-7.38139 -0.4584,-1.29293 -1.245,-2.33276 -2.3669,-3.11262 -1.122,-0.78671 -2.4628,-1.1698 -4.002,-1.1698 -1.7855,0 -3.4547,0.5336 -5.0076,1.61446 -1.546,1.06719 -2.6953,2.52431 -3.4409,4.344 -0.7526,1.81286 -1.1288,4.60396 -1.1288,8.35964 v 12.72417 h -3.8583 z"/>
    <path
       d="m 1570.18,311.32783 c -2.148,0 -4.1388,0.5336 -5.9584,1.58709 -1.8198,1.06035 -3.2632,2.54484 -4.344,4.45347 -1.0672,1.90863 -1.6008,3.92669 -1.6008,6.05424 0,2.12069 0.5336,4.13878 1.6144,6.06108 1.0809,1.94283 2.538,3.43415 4.3713,4.50818 1.8265,1.08088 3.7899,1.61446 5.8764,1.61446 2.1276,0 4.1183,-0.53358 6.0132,-1.60762 1.8949,-1.05351 3.3521,-2.49695 4.3713,-4.30979 1.0126,-1.81969 1.5188,-3.87883 1.5188,-6.15002 0,-3.4752 -1.1356,-6.36892 -3.4205,-8.70853 -2.2985,-2.3396 -5.1033,-3.50256 -8.4417,-3.50256 m 15.4332,-2.95529 v 30.02492 h -3.8104 v -5.17176 c -1.6146,1.97704 -3.4342,3.46152 -5.4523,4.45347 -2.0181,0.99877 -4.2208,1.49132 -6.5947,1.49132 -4.255,0 -7.8876,-1.54606 -10.8908,-4.61764 -3.01,-3.09211 -4.515,-6.83411 -4.515,-11.25337 0,-4.31664 1.5188,-8.01758 4.5561,-11.08917 3.0305,-3.07159 6.6768,-4.6108 10.9524,-4.6108 2.4559,0 4.686,0.51992 6.6972,1.58027 1.9908,1.03981 3.742,2.61324 5.2471,4.71341 v -5.52065 z"/>
    <path
       d="m 1614.4586,338.39815 h 2.4286 l -0.4652,3.28366 c 0.4173,-0.0616 0.773,-0.0889 1.0398,-0.0889 0.9099,0 1.6623,0.28048 2.2712,0.84144 0.602,0.56096 0.9099,1.26558 0.9099,2.10702 0,1.21768 -0.5611,2.25066 -1.6556,3.10578 -1.1081,0.84144 -2.6611,1.26558 -4.6655,1.26558 -1.6418,0 -3.1742,-0.28048 -4.604,-0.82775 l 0.602,-1.90863 c 1.1835,0.36942 2.278,0.54727 3.3111,0.54727 1.3887,0 2.3532,-0.16417 2.9005,-0.50623 0.5404,-0.3352 0.8278,-0.76618 0.8278,-1.28609 0,-0.30784 -0.1506,-0.58832 -0.4583,-0.82776 -0.3079,-0.23943 -0.7184,-0.36257 -1.252,-0.36257 -0.4447,0 -1.0808,0.0957 -1.9359,0.25312 z m 15.7547,-23.78597 -3.0647,1.90178 c -2.6406,-3.51625 -6.2526,-5.26753 -10.8224,-5.26753 -3.6598,0 -6.6973,1.17664 -9.1121,3.52993 -2.4149,2.35328 -3.6189,5.2128 -3.6189,8.56487 0,2.18909 0.5473,4.24823 1.6556,6.17054 1.1218,1.93598 2.6473,3.43414 4.5833,4.48765 1.936,1.07403 4.1047,1.60763 6.5195,1.60763 4.4124,0 8.0038,-1.75128 10.795,-5.26754 l 3.0647,2.0044 c -1.4297,2.16859 -3.3589,3.85146 -5.7737,5.04178 -2.4218,1.18349 -5.1718,1.78549 -8.2707,1.78549 -4.7408,0 -8.688,-1.50501 -11.8144,-4.52871 -3.1263,-3.01685 -4.686,-6.69044 -4.686,-11.00708 0,-2.91425 0.732,-5.61643 2.2028,-8.09968 1.4571,-2.49695 3.4615,-4.43293 6.0268,-5.83533 2.5517,-1.38871 5.4112,-2.10018 8.5717,-2.10018 1.9976,0 3.9063,0.30784 5.7534,0.90986 1.8538,0.61568 3.4204,1.40238 4.7133,2.38064 1.2793,0.97141 2.3807,2.21646 3.2768,3.72148"/>
    <path
       d="m 1667.5533,297.20538 1.936,2.67481 c -1.3203,0.95773 -2.4423,1.61447 -3.3521,1.94967 -0.903,0.3352 -1.8675,0.50622 -2.8868,0.50622 -1.3203,0 -2.6818,-0.34888 -4.0704,-1.02613 -1.204,-0.58832 -1.9634,-0.92353 -2.2986,-1.01931 -0.4446,-0.13 -0.9236,-0.1847 -1.4297,-0.1847 -0.6431,0 -1.2588,0.10266 -1.8335,0.33521 -0.5882,0.23943 -1.4297,0.74565 -2.5242,1.55973 l -1.8266,-2.81846 c 1.683,-1.79234 3.7488,-2.69534 6.2116,-2.69534 1.1767,0 2.5791,0.37624 4.2208,1.13559 1.5667,0.73199 2.7912,1.09456 3.7011,1.09456 1.0056,0 2.3943,-0.50624 4.1524,-1.51185 m -8.6675,14.11972 c -2.1549,0 -4.132,0.54042 -5.9448,1.59393 -1.8333,1.05351 -3.2768,2.538 -4.344,4.44661 -1.0809,1.91547 -1.6144,3.92671 -1.6144,6.05424 0,2.12754 0.5472,4.13878 1.6282,6.06793 1.0808,1.93598 2.538,3.43416 4.3713,4.50134 1.8128,1.08087 3.7761,1.61447 5.8764,1.61447 2.1139,0 4.1183,-0.5336 6.0132,-1.60079 1.8812,-1.0535 3.3383,-2.49694 4.3645,-4.31664 1.0192,-1.81969 1.5255,-3.87197 1.5255,-6.14317 0,-3.4752 -1.1493,-6.37576 -3.4341,-8.71536 -2.285,-2.3396 -5.1034,-3.50256 -8.4418,-3.50256 m 15.4332,-2.94846 v 30.01809 h -3.8104 v -5.16492 c -1.6145,1.97704 -3.4341,3.45468 -5.4385,4.44661 -2.0181,0.99879 -4.2209,1.49817 -6.6152,1.49817 -4.2483,0 -7.8672,-1.55289 -10.884,-4.62448 -3.01,-3.08526 -4.5081,-6.82726 -4.5081,-11.25336 0,-4.3098 1.5117,-8.01075 4.556,-11.08917 3.0305,-3.07159 6.6836,-4.60396 10.9454,-4.60396 2.4696,0 4.7067,0.5199 6.6974,1.57341 1.9906,1.03983 3.7352,2.62009 5.247,4.71341 v -5.5138 z"/>
    <path
       d="m 1703.9922,311.38119 c -3.2084,0 -5.9721,1.19032 -8.2844,3.55729 -2.2985,2.37382 -3.4614,5.247 -3.4614,8.61275 0,2.16859 0.5336,4.20035 1.5802,6.06792 1.0535,1.86759 2.4696,3.32471 4.2756,4.344 1.7855,1.02615 3.7556,1.53238 5.89,1.53238 2.1344,0 4.1046,-0.50623 5.89,-1.53238 1.7924,-1.01929 3.2222,-2.47641 4.262,-4.344 1.0603,-1.86757 1.5939,-3.89933 1.5939,-6.06792 0,-3.36575 -1.1629,-6.23893 -3.4888,-8.61275 -2.3123,-2.36697 -5.0624,-3.55729 -8.2571,-3.55729 m 0.013,-3.78304 c 4.6244,0 8.4553,1.66919 11.4928,5.02809 2.7637,3.05791 4.1524,6.66308 4.1524,10.84975 0,4.17982 -1.4708,7.8534 -4.3851,10.97972 -2.9211,3.13999 -6.6768,4.71342 -11.2601,4.71342 -4.6108,0 -8.3803,-1.57343 -11.2876,-4.71342 -2.9348,-3.12632 -4.3851,-6.7999 -4.3851,-10.97972 0,-4.17299 1.3751,-7.76448 4.1388,-10.82239 3.0511,-3.37258 6.882,-5.05545 11.5339,-5.05545"/>
    <path
       d="m 487.7669,303.9526 -0.30784,-3.27681 13.62716,-4.65868 0.30784,3.27681 z"/>
  </g>
  <g id="gear">
    <path
       d="M 123.78061,75.829593 C 185.83484,40.010391 265.6687,61.402032 301.50158,123.44942 337.32763,185.5105 315.94282,265.34435 253.88859,301.17039 191.82067,337.01011 111.98682,315.61163 76.160775,253.55056 40.334733,191.49633 61.719534,111.65563 123.78061,75.829593 m -29.108232,-50.41095 14.427562,-8.325427 27.82213,24.682135 c 7.7508,-2.743227 15.61788,-4.822867 23.54655,-6.279987 l 11.71169,-35.32665528 16.65087,0.0205333 h 16.65771 L 217.27583,35.61851 c 7.94919,1.491334 15.78207,3.584654 23.40288,6.273147 l 27.89739,-24.798427 14.40704,8.325427 14.43439,8.33228 -7.48399,36.469082 c 6.13632,5.2128 11.90324,10.96604 17.23919,17.204987 l 36.42804,-7.49768 8.31859,14.420719 8.3186,14.427555 -24.68899,27.82214 c 2.73639,7.75079 4.82287,15.61104 6.28,23.5397 l 35.32664,11.72538 -0.0137,16.64402 -0.007,16.65771 -35.42926,11.78695 c -1.47764,7.94919 -3.58466,15.78207 -6.26631,23.40289 l 24.80528,27.89054 -8.32544,14.41387 -8.33911,14.42756 -36.46225,-7.484 c -5.22648,6.14318 -10.97972,11.9101 -17.22551,17.25287 l 7.51136,36.42122 -14.42071,8.31174 -14.4344,8.31859 -27.80845,-24.68213 c -7.74395,2.73637 -15.62472,4.82286 -23.56023,6.27998 l -11.70485,35.32666 -16.64403,-0.0205 -16.66455,-0.007 -11.78011,-35.42243 c -7.95602,-1.47764 -15.78206,-3.58465 -23.40288,-6.27315 l -27.89739,24.81211 -14.413872,-8.33227 -14.427558,-8.33228 7.477155,-36.46908 c -6.129488,-5.2128 -11.903248,-10.96604 -17.246029,-17.22551 l -36.421203,7.5182 -8.311751,-14.42072 -8.325434,-14.4344 24.69582,-27.80845 C 39.370279,232.67216 37.28379,224.79139 35.833509,216.86273 L 0.50001579,205.14419 0.51369765,188.507 V 171.83562 L 35.949805,160.06235 c 1.484486,-7.95603 3.584657,-15.78207 6.266308,-23.40973 l -24.798435,-27.90422 8.325434,-14.400195 8.332274,-14.427559 36.46225,7.47716 C 75.757279,81.261473 81.510515,75.480872 87.763141,70.151779 L 80.25178,33.737417 Z"/>
    <path
       d="m 127.63548,291.64027 0.0479,-0.0411 c 35.86025,21.09748 81.79036,22.89664 120.27752,0.67726 56.88932,-32.8434 76.49548,-106.02785 43.65894,-162.91717 -4.40558,-7.60714 -9.51576,-14.5507 -15.22111,-20.7828 l -18.26534,18.25165 -7.55924,7.57293 -17.29392,17.28023 c 2.07282,2.49695 3.96775,5.20596 5.65747,8.10652 16.07623,27.86318 6.47153,63.70975 -21.39164,79.79965 -13.75715,7.94919 -29.4708,9.61838 -43.77523,5.91742 l 68.63523,-68.63522 h -49.58319 l 32.81603,-32.82284 17.28707,-17.29391 c -25.93403,-22.67775 -64.54434,-27.610069 -95.98533,-9.45419 -36.96848,21.33691 -51.252382,67.2123 -34.2321,105.38479 l -8.01759,8.00391 c -21.84315,-43.77522 -6.006357,-97.85975 36.92059,-122.63767 35.69606,-20.611767 79.59443,-14.858533 108.87368,11.14391 6.08844,-6.0816 12.17688,-12.16321 18.25848,-18.25165 -6.15001,-5.616417 -12.7652,-10.487173 -19.70876,-14.598587 l -0.0411,0.05467 C 213.13365,65.293779 167.19668,63.487765 128.70267,85.714006 71.827033,118.55055 52.214037,191.73501 85.057426,248.63117 c 3.427315,5.91742 7.292449,11.4449 11.526996,16.53457 h 0.0068 c 1.190324,1.4366 2.421695,2.85267 3.694108,4.24138 l 18.25165,-18.25158 7.55925,-7.56608 17.29392,-17.28708 c -2.07281,-2.49694 -3.96776,-5.19912 -5.64379,-8.09284 -16.08991,-27.87002 -6.47838,-63.72342 21.37796,-79.80649 13.76399,-7.94918 29.4708,-9.61837 43.78891,-5.9311 l -68.64887,68.6489 h 49.59687 l -32.82971,32.82287 -17.28707,17.28707 c 25.94771,22.68459 64.54434,27.61007 95.99217,9.46787 36.9548,-21.35059 51.25238,-67.22599 34.23211,-105.39163 l 8.01075,-8.01759 c 21.84314,43.78206 6.00634,97.87343 -36.90691,122.65819 -35.70975,20.59809 -79.60127,14.84485 -108.88053,-11.16443 -6.09528,6.09528 -12.18372,12.18373 -18.26533,18.27217 6.15686,5.62326 12.75837,10.48033 19.70877,14.5849"/>
    <path
       d="m 202.91258,132.47468 -68.64891,68.64207 h 49.59687 l -32.82971,32.82287 22.73931,11.5612 68.63523,-68.63523 h -49.58319 l 32.81603,-32.82286 z"/>
  </g>
</svg>
