<svg viewBox="0 0 61 61">
<path
     d="M 0.49999989,0.49999995 V 60.5 H 60.5 V 0.49999995 Z M 15.634766,20.5 H 45.365234 V 40.962891 H 15.634766 Z m 2.953125,2.638672 c -0.395807,0 -0.642579,0.233223 -0.642579,0.642578 0,0.386129 0.331546,0.529758 0.59961,0.6875 1.783548,1.049033 11.586895,7.347124 11.90625,7.396484 0.286452,0.04355 0.667815,-0.241451 0.865234,-0.375 3.383226,-2.16 6.7997,-4.429137 10.216797,-6.511718 0.543871,-0.331936 1.378906,-0.763718 1.378906,-1.197266 0,-0.409355 -0.245804,-0.642578 -0.642578,-0.642578 -0.247742,0 -9.246522,5.826204 -10.257812,6.472656 -0.495484,0.331936 -0.975061,0.607412 -1.453125,0.927734 l -1.507813,-0.9375 c -0.583549,-0.358063 -10.218052,-6.46289 -10.46289,-6.46289 z"/>
</svg>
