<svg viewBox="0 0 61 61">
<path
     d="m 25.463687,38.988778 0.0039,-0.0034 c 2.951416,1.736392 6.731615,1.884469 9.899236,0.05574 C 40.049,36.338 41.662651,30.314679 38.960095,25.632502 38.597502,25.00641 38.176917,24.434932 37.707348,23.92201 l -1.503296,1.50217 -0.622151,0.623277 -1.423346,1.42222 c 0.170599,0.205506 0.326559,0.428467 0.465628,0.667193 1.323126,2.293231 0.532628,5.24352 -1.760602,6.567773 -1.132259,0.654243 -2.425544,0.791623 -3.602845,0.487023 l 5.648904,-5.648904 h -4.080858 l 2.700866,-2.70143 1.422783,-1.423345 c -2.134415,-1.866431 -5.31217,-2.272377 -7.899867,-0.778089 -3.042627,1.756098 -4.218238,5.531793 -2.817414,8.673514 l -0.659874,0.658747 c -1.797762,-3.602844 -0.494342,-8.054178 3.038686,-10.093481 2.937903,-1.696417 6.550882,-1.222906 8.96066,0.91718 0.501099,-0.500536 1.002198,-1.001072 1.502734,-1.502171 -0.506166,-0.462249 -1.050619,-0.863128 -1.622096,-1.201511 l -0.0034,0.0045 c -2.951415,-1.736955 -6.732178,-1.885596 -9.900361,-0.0563 -4.681051,2.702556 -6.295265,8.725876 -3.592147,13.408616 0.28208,0.487023 0.600193,0.941954 0.94871,1.36085 h 5.63e-4 c 0.09797,0.118236 0.199314,0.234784 0.304038,0.34908 l 1.50217,-1.502171 0.622151,-0.622713 1.423346,-1.422783 c -0.170599,-0.205507 -0.326559,-0.427905 -0.464502,-0.666068 -1.324252,-2.293793 -0.533192,-5.244646 1.759476,-6.568335 1.132821,-0.654244 2.425544,-0.791624 3.60397,-0.488149 l -5.65003,5.65003 h 4.081985 l -2.701992,2.701429 -1.422783,1.422783 c 2.135582,1.867015 5.31221,2.272398 7.90047,0.779237 3.041501,-1.757225 4.218239,-5.53292 2.817414,-8.674077 l 0.659311,-0.659874 c 1.797763,3.603407 0.494343,8.055304 -3.037559,10.09517 -2.939029,1.695291 -6.551445,1.221781 -8.961224,-0.918869 -0.501662,0.501662 -1.002761,1.002761 -1.503296,1.50386 0.506729,0.462813 1.050055,0.862566 1.622096,1.200385 m -0.31727,-17.761926 c 5.107267,-2.948037 11.677855,-1.187435 14.627018,3.919269 2.948601,5.10783 1.188562,11.678417 -3.918705,14.627018 -5.108393,2.949726 -11.678981,1.188561 -14.627581,-3.919269 -2.948601,-5.107266 -1.188562,-11.678417 3.919268,-14.627018 m -2.395703,-4.148985 1.187436,-0.685211 2.289852,2.031421 c 0.637916,-0.225776 1.285403,-0.396938 1.937958,-0.516864 l 0.963911,-2.907499 1.370421,0.0017 h 1.370984 l 0.970105,2.915945 c 0.654243,0.122741 1.298915,0.295029 1.926133,0.516301 l 2.296046,-2.040993 1.185747,0.685211 1.187998,0.685773 -0.615957,3.001526 c 0.50504,0.42903 0.979676,0.902541 1.418841,1.416026 l 2.998148,-0.617083 0.684647,1.186872 0.684647,1.187435 -2.031984,2.289853 c 0.225213,0.637916 0.396938,1.28484 0.516864,1.937394 l 2.907499,0.965038 -0.0011,1.369858 -5.63e-4,1.370984 -2.915944,0.970104 c -0.121615,0.654244 -0.295029,1.298916 -0.515738,1.926134 l 2.041555,2.295483 -0.68521,1.186309 -0.686337,1.187435 -3.000962,-0.615957 c -0.430157,0.505603 -0.903667,0.980239 -1.417716,1.419968 l 0.61821,2.997584 -1.186872,0.684084 -1.187999,0.684648 -2.288726,-2.031421 c -0.637353,0.225213 -1.285966,0.396938 -1.939084,0.516864 l -0.963348,2.907499 -1.369858,-0.0017 -1.371547,-5.63e-4 -0.969542,-2.915382 c -0.654806,-0.121615 -1.298915,-0.295029 -1.926133,-0.516301 l -2.296047,2.042119 -1.186309,-0.685774 -1.187435,-0.685773 0.615394,-3.001526 c -0.504477,-0.42903 -0.979676,-0.902541 -1.419404,-1.417715 l -2.997585,0.618772 -0.684084,-1.186872 -0.68521,-1.187998 2.032547,-2.288727 c -0.225781,-0.637351 -0.397506,-1.285965 -0.516869,-1.938519 l -2.908062,-0.964475 0.0011,-1.369294 v -1.37211 l 2.916507,-0.968979 c 0.122178,-0.654807 0.295029,-1.298916 0.515738,-1.926697 l -2.040992,-2.296609 0.68521,-1.185183 0.685774,-1.187435 3.000962,0.615394 c 0.429594,-0.50504 0.903104,-0.980802 1.417716,-1.419405 l -0.61821,-2.997021 z M 0.50000005,0.49999985 V 60.5 H 60.5 V 0.49999985 Z"/>
</svg>
