<svg viewBox="0 0 61 61">
  <path
     d="m 0.5,0.5 v 60 h 60 V 0.5 Z M 47.3525,30.905 A 16.86,16.86 0 0 1 23,45.4625 L 14.48,47.48 A 0.6525,0.6525 0 0 1 13.685,46.73 L 15.5,38 a 16.86,16.86 0 1 1 31.875,-7.1175 z"/>
  <path
     d="m 30.5,17.165 a 13.2,13.2 0 0 0 -13.2,13.2 13.05,13.05 0 0 0 1.4325,6 l 0.585,1.1475 -1.095,5.3325 5.25,-1.2375 1.185,0.5925 A 13.2075,13.2075 0 0 0 39.8675,39.71 13.2,13.2 0 0 0 30.5,17.165 Z m 8.8725,18.675 c -0.6375,1.005 -1.65,2.25 -2.9175,2.5425 -2.25,0.54 -5.67,0 -9.9525,-3.99 -3.7125,-3.465 -4.695,-6.345 -4.4625,-8.6325 0.135,-1.2975 1.215,-2.4675 2.1225,-3.24 a 1.215,1.215 0 0 1 1.905,0.435 L 27.44,26.06 a 1.215,1.215 0 0 1 -0.15,1.2375 l -0.6975,0.9 a 1.1925,1.1925 0 0 0 -0.0975,1.32 c 0.8325,1.4475 4.08,4.335 5.625,4.9575 a 1.1925,1.1925 0 0 0 1.29,-0.27 l 0.795,-0.81 a 1.215,1.215 0 0 1 1.2075,-0.315 l 3.2625,0.9375 a 1.215,1.215 0 0 1 0.6975,1.8225 z"/>
</svg>
