<?xml version="1.0" encoding="UTF-8" standalone="no"?>
<!-- Generator: Adobe Illustrator 27.5.0, SVG Export Plug-In . SVG Version: 6.00 Build 0)  -->

<svg
   version="1.1"
   id="_x30_"
   x="0px"
   y="0px"
   viewBox="0 0 133 91"
   xml:space="preserve"
   sodipodi:docname="PlasmaCNC.svg"
   inkscape:version="1.3.2 (091e20e, 2023-11-25, custom)"
   width="133"
   height="91"
   xmlns:inkscape="http://www.inkscape.org/namespaces/inkscape"
   xmlns:sodipodi="http://sodipodi.sourceforge.net/DTD/sodipodi-0.dtd"
   xmlns="http://www.w3.org/2000/svg"
   xmlns:svg="http://www.w3.org/2000/svg"><defs
   id="defs665" /><sodipodi:namedview
   id="namedview665"
   pagecolor="#ffffff"
   bordercolor="#000000"
   borderopacity="0.25"
   inkscape:showpageshadow="2"
   inkscape:pageopacity="0.0"
   inkscape:pagecheckerboard="0"
   inkscape:deskcolor="#d1d1d1"
   inkscape:zoom="6.2933333"
   inkscape:cx="60.858051"
   inkscape:cy="42.1875"
   inkscape:window-width="2560"
   inkscape:window-height="1009"
   inkscape:window-x="1912"
   inkscape:window-y="-8"
   inkscape:window-maximized="1"
   inkscape:current-layer="_x30_" />

<g
   id="_x32_"
   transform="translate(-156.573,-343.1815)">
	<g
   id="g59">
		<g
   id="g32">
			<g
   id="Axonometric_Cube_33_">
				<polygon
   id="Cube_face_-_left_192_"
   style="fill:#2c2623"
   points="243.952,434.007 239.501,431.437 239.501,425.161 243.952,427.731 " />
				<polygon
   id="Cube_face_-_right_176_"
   style="fill:#3a322e"
   points="248.577,431.336 243.952,434.007 243.952,427.731 248.577,425.06 " />
			</g>
			<g
   id="Axonometric_Cube_32_">
				<polygon
   id="Cube_face_-_left_191_"
   style="fill:#2c2623"
   points="180.576,397.417 176.126,394.848 176.126,388.571 180.576,391.141 " />
				<polygon
   id="Cube_face_-_right_175_"
   style="fill:#3a322e"
   points="185.202,394.747 180.576,397.417 180.576,391.141 185.202,388.47 " />
			</g>
			<g
   id="Axonometric_Cube_30_">
				<polygon
   id="Cube_face_-_left_190_"
   style="fill:#2c2623"
   points="283.745,411.033 279.294,408.463 279.294,402.187 283.745,404.756 " />
				<polygon
   id="Cube_face_-_right_174_"
   style="fill:#3a322e"
   points="288.371,408.362 283.745,411.033 283.745,404.756 288.371,402.086 " />
			</g>
			<g
   id="Axonometric_Cube_28_">
				<polygon
   id="Cube_face_-_left_189_"
   style="fill:#2c2623"
   points="243.953,431.28 176.107,392.109 176.107,372.454 243.953,411.624 " />
				<polygon
   id="Cube_face_-_right_173_"
   style="fill:#3a322e"
   points="288.375,405.633 243.953,431.28 243.953,411.624 288.375,385.977 " />
				<polygon
   style="fill:#eeb124"
   points="248.953,416.68 283.375,396.806 283.375,405.786 248.953,425.659 "
   id="polygon30" />
			</g>
			<polygon
   id="Cube_face_-_left_188_"
   style="fill:#c8c4ba"
   points="243.953,417.393 174.981,377.573 174.981,369.554 243.953,409.374 " />
			<polygon
   id="Cube_face_-_right_172_"
   style="fill:#e1ddd7"
   points="289.328,391.196 243.953,417.393 243.953,409.374 289.328,383.177 " />
			<polygon
   id="Cube_face_-_top_204_"
   style="fill:#f2efeb"
   points="243.953,409.374 174.981,369.554 220.356,343.356 289.328,383.177 " />
			<polygon
   id="Cube_face_-_right_163_"
   style="fill:#3a322e"
   points="260.207,384.316 285.469,385.402 285.469,387.274 247.818,409.012 247.818,407.14 " />
			<polygon
   style="fill:#463c37"
   points="178.851,367.319 216.485,345.59 285.481,385.425 247.846,407.153 "
   id="polygon31" />
			<path
   style="fill:#3a322e"
   d="m 245.998,406.086 37.635,-21.728 0.826,0.477 -37.635,21.728 z m -0.964,-0.556 37.635,-21.728 -0.826,-0.477 -37.635,21.728 z m -1.789,-1.033 37.635,-21.728 -0.826,-0.477 -37.635,21.728 z m -1.789,-1.033 37.635,-21.728 -0.825,-0.477 -37.635,21.728 z m -1.789,-1.033 37.635,-21.728 -0.826,-0.477 -37.635,21.728 z m -1.79,-1.033 37.635,-21.728 -0.826,-0.477 -37.635,21.728 z m -1.789,-1.033 37.635,-21.728 -0.826,-0.477 -37.635,21.728 z m -1.789,-1.033 37.635,-21.728 -0.826,-0.477 -37.635,21.728 z m -1.789,-1.033 37.635,-21.728 -0.826,-0.477 -37.635,21.728 z m -1.789,-1.033 37.635,-21.728 -0.826,-0.477 -37.635,21.728 z m -1.789,-1.033 37.635,-21.728 -0.826,-0.477 -37.635,21.728 z m -1.789,-1.033 37.635,-21.728 -0.826,-0.477 -37.635,21.728 z m -1.79,-1.033 37.635,-21.728 -0.826,-0.477 -37.635,21.728 z m -1.789,-1.033 37.635,-21.728 -0.826,-0.477 -37.635,21.728 z m -1.789,-1.033 37.635,-21.728 -0.826,-0.477 -37.635,21.728 z m -1.789,-1.033 37.635,-21.728 -0.826,-0.477 -37.635,21.728 z m -1.789,-1.033 37.635,-21.728 -0.826,-0.477 -37.635,21.728 z m -1.789,-1.033 37.635,-21.728 -0.826,-0.477 -37.635,21.728 z m -1.79,-1.033 37.635,-21.728 -0.826,-0.477 -37.635,21.728 z m -1.789,-1.033 37.635,-21.728 -0.826,-0.477 -37.635,21.728 z m -1.789,-1.033 37.635,-21.728 -0.826,-0.477 -37.635,21.728 z m -1.789,-1.033 37.635,-21.728 -0.826,-0.477 -37.635,21.728 z m -1.789,-1.033 37.635,-21.728 -0.826,-0.477 -37.635,21.728 z m -1.789,-1.033 37.635,-21.728 -0.826,-0.477 -37.635,21.728 z m -1.789,-1.033 37.635,-21.728 -0.826,-0.477 -37.635,21.728 z m -1.79,-1.033 37.635,-21.728 -0.826,-0.477 -37.635,21.728 z m -1.789,-1.032 37.635,-21.728 -0.826,-0.477 -37.635,21.728 z m -1.789,-1.034 37.635,-21.728 -0.826,-0.477 -37.635,21.728 z m -1.789,-1.033 37.635,-21.728 -0.826,-0.477 -37.635,21.728 z m -1.789,-1.032 37.635,-21.728 -0.826,-0.477 -37.635,21.728 z m -1.789,-1.033 37.635,-21.728 -0.826,-0.477 -37.635,21.728 z m -1.79,-1.033 37.635,-21.728 -0.826,-0.477 -37.635,21.728 z m -1.789,-1.033 37.635,-21.728 -0.826,-0.477 -37.635,21.728 z m -1.789,-1.033 37.635,-21.728 -0.826,-0.477 -37.635,21.728 z m -1.789,-1.033 37.635,-21.728 -0.826,-0.477 -37.635,21.728 z m -1.789,-1.033 37.635,-21.728 -0.826,-0.477 -37.635,21.728 z m -1.789,-1.033 37.635,-21.728 -0.826,-0.477 -37.635,21.728 z m -1.789,-1.033 37.635,-21.728 -0.826,-0.477 -37.635,21.728 z"
   id="path31" />
			<path
   style="fill:#c8c4ba"
   d="m 244.455,406.582 0.523,0.302 -1.407,0.812 -0.523,-0.302 z m 41.457,-23.935 -1.407,0.812 0.523,0.302 1.407,-0.812 z m -42.542,23.308 -1.407,0.812 0.523,0.302 1.407,-0.812 z m 41.457,-23.935 -1.406,0.812 0.523,0.302 1.407,-0.812 z m -42.541,23.309 -1.407,0.812 0.523,0.302 1.407,-0.812 z m 41.456,-23.935 -1.407,0.812 0.523,0.302 1.407,-0.812 z m -1.085,-0.626 -1.407,0.812 0.523,0.302 1.407,-0.812 z m -41.456,23.934 -1.407,0.812 0.523,0.302 1.407,-0.812 z m -1.085,-0.626 -1.407,0.812 0.523,0.302 1.407,-0.812 z m 41.456,-23.935 -1.407,0.812 0.523,0.302 1.407,-0.812 z m -1.085,-0.626 -1.407,0.812 0.523,0.302 1.407,-0.812 z m -41.456,23.934 -1.407,0.812 0.523,0.302 1.407,-0.812 z m 40.371,-24.561 -1.407,0.812 0.523,0.302 1.407,-0.812 z m -41.456,23.935 -1.407,0.812 0.523,0.302 1.407,-0.812 z m -1.085,-0.626 -1.407,0.812 0.523,0.302 1.406,-0.812 z m 41.456,-23.935 -1.407,0.812 0.523,0.302 1.407,-0.812 z m -1.085,-0.627 -1.407,0.812 0.523,0.302 1.406,-0.812 z m -41.456,23.935 -1.407,0.812 0.523,0.302 1.407,-0.812 z m -1.085,-0.626 -1.407,0.812 0.523,0.302 1.407,-0.812 z m 41.456,-23.935 -1.407,0.812 0.523,0.302 1.407,-0.812 z m -42.541,23.308 -1.407,0.812 0.523,0.302 1.407,-0.812 z m 41.456,-23.934 -1.407,0.812 0.523,0.302 1.407,-0.812 z m -1.085,-0.627 -1.407,0.812 0.523,0.302 1.407,-0.812 z m -41.456,23.935 -1.407,0.812 0.523,0.302 1.407,-0.812 z m -1.085,-0.626 -1.407,0.812 0.523,0.302 1.407,-0.812 z m 41.456,-23.935 -1.407,0.812 0.523,0.302 1.407,-0.812 z m -42.541,23.308 -1.407,0.812 0.523,0.302 1.407,-0.812 z m 41.456,-23.935 -1.407,0.812 0.523,0.302 1.407,-0.812 z m -1.085,-0.626 -1.407,0.812 0.523,0.302 1.407,-0.812 z m -41.456,23.935 -1.407,0.812 0.523,0.302 1.407,-0.812 z m 40.371,-24.561 -1.407,0.812 0.523,0.302 1.407,-0.812 z m -41.456,23.934 -1.407,0.812 0.523,0.302 1.407,-0.812 z m -1.085,-0.626 -1.407,0.812 0.523,0.302 1.407,-0.812 z m 41.456,-23.935 -1.407,0.812 0.523,0.302 1.407,-0.812 z m -42.541,23.308 -1.407,0.812 0.523,0.302 1.407,-0.812 z m 41.456,-23.934 -1.407,0.812 0.523,0.302 1.407,-0.812 z m -1.085,-0.627 -1.407,0.812 0.523,0.302 1.407,-0.812 z m -41.456,23.935 -1.407,0.812 0.523,0.302 1.406,-0.812 z m -1.085,-0.626 -1.407,0.812 0.523,0.302 1.407,-0.812 z m 41.456,-23.935 -1.407,0.812 0.523,0.302 1.407,-0.812 z m -1.085,-0.627 -1.407,0.812 0.523,0.302 1.407,-0.812 z m -41.456,23.935 -1.407,0.812 0.523,0.302 1.407,-0.812 z m -1.085,-0.626 -1.407,0.812 0.523,0.302 1.407,-0.812 z m 41.456,-23.935 -1.407,0.812 0.523,0.302 1.407,-0.812 z m -1.085,-0.626 -1.407,0.812 0.523,0.302 1.407,-0.812 z m -41.456,23.935 -1.407,0.812 0.523,0.302 1.407,-0.812 z m 40.371,-24.562 -1.406,0.812 0.523,0.302 1.407,-0.812 z m -41.456,23.935 -1.407,0.812 0.523,0.302 1.407,-0.812 z m -1.085,-0.626 -1.407,0.812 0.523,0.302 1.406,-0.812 z m 41.456,-23.935 -1.407,0.812 0.523,0.302 1.407,-0.812 z m -1.085,-0.627 -1.407,0.812 0.523,0.302 1.406,-0.812 z m -41.456,23.935 -1.407,0.812 0.523,0.302 1.407,-0.812 z m 40.371,-24.561 -1.407,0.812 0.523,0.302 1.407,-0.812 z m -41.456,23.935 -1.407,0.812 0.523,0.302 1.407,-0.812 z m -1.085,-0.627 -1.407,0.812 0.523,0.302 1.407,-0.812 z m 41.456,-23.934 -1.407,0.812 0.523,0.302 1.407,-0.812 z m -1.085,-0.627 -1.407,0.812 0.523,0.302 1.407,-0.812 z m -41.456,23.935 -1.407,0.812 0.523,0.302 1.407,-0.812 z m 40.371,-24.561 -1.406,0.812 0.523,0.302 1.407,-0.812 z m -41.456,23.935 -1.407,0.812 0.523,0.302 1.407,-0.812 z m -1.085,-0.627 -1.407,0.812 0.523,0.302 1.407,-0.812 z m 41.456,-23.935 -1.407,0.812 0.523,0.302 1.407,-0.812 z m -1.085,-0.626 -1.407,0.812 0.523,0.302 1.407,-0.812 z m -41.456,23.935 -1.407,0.812 0.523,0.302 1.407,-0.812 z m -1.085,-0.627 -1.407,0.812 0.523,0.302 1.407,-0.812 z m 41.456,-23.934 -1.407,0.812 0.523,0.302 1.407,-0.812 z m -42.541,23.308 -1.407,0.812 0.523,0.302 1.407,-0.812 z m 41.456,-23.935 -1.407,0.812 0.523,0.302 1.406,-0.812 z m -42.541,23.309 -1.407,0.812 0.523,0.302 1.407,-0.812 z m 41.456,-23.935 -1.407,0.812 0.523,0.302 1.407,-0.812 z m -42.541,23.308 -1.407,0.812 0.523,0.302 1.406,-0.812 z m 41.456,-23.935 -1.407,0.812 0.523,0.302 1.407,-0.812 z m -1.085,-0.626 -1.407,0.812 0.523,0.302 1.407,-0.812 z m -41.456,23.935 -1.407,0.812 0.523,0.302 1.407,-0.812 z m -1.085,-0.627 -1.407,0.812 0.523,0.302 1.407,-0.812 z m 40.573,-22.821 1.407,-0.812 -0.523,-0.302 -1.407,0.812 z m -1.085,-0.626 1.407,-0.812 -0.523,-0.302 -1.407,0.812 z m -40.573,22.821 -1.407,0.812 0.523,0.302 1.407,-0.812 z m 39.488,-23.447 1.407,-0.812 -0.523,-0.302 -1.407,0.812 z m -40.573,22.82 -1.407,0.812 0.523,0.302 1.407,-0.812 z m -1.085,-0.626 -1.407,0.812 0.523,0.302 1.407,-0.812 z m 40.573,-22.821 1.407,-0.812 -0.523,-0.302 -1.406,0.812 z m -1.085,-0.626 1.407,-0.812 -0.523,-0.302 -1.407,0.812 z m -40.573,22.821 -1.407,0.812 0.523,0.302 1.407,-0.812 z m -1.085,-0.627 -1.407,0.812 0.523,0.302 1.407,-0.812 z m 40.573,-22.821 1.407,-0.812 -0.523,-0.302 -1.407,0.812 z m -1.085,-0.626 1.407,-0.812 -0.523,-0.302 -1.407,0.812 z m -40.573,22.821 -1.407,0.812 0.523,0.302 1.407,-0.812 z m 39.488,-23.448 1.407,-0.812 -0.523,-0.302 -1.407,0.812 z m -40.573,22.821 -1.407,0.812 0.523,0.302 1.407,-0.812 z m 39.488,-23.447 1.407,-0.812 -0.523,-0.302 -1.407,0.812 z m -40.573,22.821 -1.407,0.812 0.523,0.302 1.407,-0.812 z m 39.488,-23.447 1.407,-0.812 -0.523,-0.302 -1.407,0.812 z m -40.573,22.821 -1.407,0.812 0.523,0.302 1.407,-0.812 z m 39.488,-23.448 1.407,-0.812 -0.523,-0.302 -1.407,0.812 z m -40.573,22.821 -1.407,0.812 0.523,0.302 1.407,-0.812 z m 39.488,-23.447 1.407,-0.812 -0.523,-0.302 -1.407,0.812 z m -40.573,22.821 -1.407,0.812 0.523,0.302 1.407,-0.812 z m 39.488,-23.448 1.407,-0.812 -0.523,-0.302 -1.407,0.812 z m -40.573,22.821 -1.407,0.812 0.523,0.302 1.407,-0.812 z m 39.488,-23.447 1.406,-0.812 -0.523,-0.302 -1.407,0.812 z m -40.573,22.821 -1.407,0.812 0.523,0.302 1.407,-0.812 z m 39.488,-23.447 1.407,-0.812 -0.523,-0.302 -1.407,0.812 z m -40.573,22.82 -1.407,0.812 0.523,0.302 1.407,-0.812 z m 39.488,-23.447 1.407,-0.812 -0.523,-0.302 -1.407,0.812 z m -40.573,22.821 -1.407,0.812 0.523,0.302 1.407,-0.812 z m -1.085,-0.626 -1.407,0.812 0.523,0.302 1.407,-0.812 z m 40.573,-22.821 1.407,-0.812 -0.523,-0.302 -1.407,0.812 z m -41.658,22.194 -1.407,0.812 0.523,0.302 1.407,-0.812 z m 40.573,-22.821 1.407,-0.812 -0.523,-0.302 -1.407,0.812 z m -1.085,-0.626 1.407,-0.812 -0.523,-0.302 -1.407,0.812 z m -40.573,22.821 -1.407,0.812 0.523,0.302 1.407,-0.812 z m 39.488,-23.448 1.407,-0.812 -0.523,-0.302 -1.407,0.812 z m -40.573,22.821 -1.406,0.812 0.523,0.302 1.407,-0.812 z m -1.085,-0.626 -1.407,0.812 0.523,0.302 1.407,-0.812 z m 40.573,-22.821 1.407,-0.812 -0.523,-0.302 -1.406,0.812 z m -41.658,22.195 -1.407,0.812 0.523,0.302 1.407,-0.812 z m 40.573,-22.821 1.407,-0.812 -0.523,-0.302 -1.407,0.812 z m -41.658,22.194 -1.407,0.812 0.523,0.302 1.407,-0.812 z m 40.573,-22.821 1.407,-0.812 -0.523,-0.302 -1.407,0.812 z m 0.322,-1.438 -0.523,-0.302 -1.407,0.812 0.523,0.302 z m -41.98,23.633 -1.407,0.812 0.523,0.302 1.406,-0.812 z"
   id="path32" />
		</g>
		<g
   id="g49">
			<path
   style="fill:#c23030"
   d="m 212.739,355.146 c -1.564,-0.324 -3.049,-0.18 -3.546,0.453 -0.124,0.076 -0.232,0.167 -0.319,0.276 -0.125,0.077 -0.233,0.168 -0.321,0.277 -0.791,0.487 -0.806,1.635 -0.421,3.371 0.301,1.35 -0.208,3.074 -0.196,3.815 0.447,-0.241 0.892,-0.485 1.337,-0.729 -0.025,-0.701 0.516,-2.477 0.22,-3.821 -0.114,-0.525 -0.223,-1.054 -0.266,-1.587 -0.023,-0.281 -0.059,-0.607 0.162,-0.873 0.249,-0.269 1.678,-0.173 2.093,-0.094 l 0.298,-0.258 c -0.249,-0.051 -0.487,-0.095 -0.703,-0.123 0.217,0.02 0.461,0.058 0.723,0.106 l 0.301,-0.26 c -0.244,-0.05 -0.477,-0.093 -0.691,-0.121 0.214,0.02 0.454,0.057 0.71,0.104 l 0.301,-0.26 c -0.242,-0.05 -0.473,-0.092 -0.685,-0.12 0.213,0.02 0.45,0.056 0.704,0.103 z"
   id="path33" />
			<g
   id="g37">
				<g
   id="Axonometric_Cube_18_">
					<polygon
   id="Cube_face_-_left_246_"
   style="fill:#949494"
   points="212.781,364.669 219.156,368.35 219.156,368.788 212.781,365.108 " />
					<polygon
   id="Cube_face_-_right_232_"
   style="fill:#b2b2b2"
   points="222.705,366.74 219.156,368.788 219.156,368.35 222.705,366.301 " />
					
						<linearGradient
   id="Cube_face_-_top_00000092437499062985551830000006691990356770330809_"
   gradientUnits="userSpaceOnUse"
   x1="212.78149"
   y1="365.48541"
   x2="222.7048"
   y2="365.48541">
						<stop
   offset="0"
   style="stop-color:#DFDFDF"
   id="stop33" />
						<stop
   offset="0.6404"
   style="stop-color:#C7C7C7"
   id="stop34" />
						<stop
   offset="0.6453"
   style="stop-color:#D5D5D5"
   id="stop35" />
					</linearGradient>
					
						<polygon
   id="Cube_face_-_top_241_"
   style="fill:url(#Cube_face_-_top_00000092437499062985551830000006691990356770330809_)"
   points="219.156,368.35 212.781,364.669 216.33,362.621 222.705,366.301 " />
				</g>
				<g
   id="Axonometric_Cylinder_7_">
					
						<linearGradient
   id="SVGID_00000122686948061393623460000008254030134772548508_"
   gradientUnits="userSpaceOnUse"
   x1="217.99229"
   y1="362.62329"
   x2="219.65131"
   y2="362.62329">
						<stop
   offset="0"
   style="stop-color:#949494"
   id="stop36" />
						<stop
   offset="1"
   style="stop-color:#B2B2B2"
   id="stop37" />
					</linearGradient>
					<path
   style="fill:url(#SVGID_00000122686948061393623460000008254030134772548508_)"
   d="m 217.992,358.705 v 7.371 c 0.002,0.121 0.083,0.242 0.243,0.334 0.324,0.187 0.849,0.187 1.173,0 0.164,-0.095 0.245,-0.219 0.243,-0.343 v -7.371 z"
   id="path37" />
					<path
   id="Cylinder_face_2_"
   style="fill:#f2efeb"
   d="m 219.408,359.039 c -0.324,0.187 -0.849,0.187 -1.173,0 -0.324,-0.187 -0.324,-0.49 0,-0.677 0.324,-0.187 0.849,-0.187 1.173,0 0.324,0.187 0.324,0.49 0,0.677 z" />
				</g>
			</g>
			<g
   id="g48">
				<g
   id="g41">
					<polygon
   style="fill:#eeb124"
   points="240.881,357.861 244.766,355.603 244.775,357.445 240.89,359.703 "
   id="polygon37" />
					<polygon
   style="fill:#ffdf66"
   points="237.231,351.77 241.117,349.512 244.766,355.603 240.881,357.861 "
   id="polygon38" />
					<polygon
   style="fill:#eeb124"
   points="237.244,348.912 241.129,346.654 241.117,349.512 237.231,351.77 "
   id="polygon39" />
					<polygon
   style="fill:#ffce40"
   points="231.966,345.864 235.851,343.606 241.129,346.654 237.244,348.912 "
   id="polygon40" />
					<polygon
   style="fill:#d08b05"
   points="240.881,357.861 240.89,359.703 231.947,354.54 231.966,345.864 237.244,348.912 237.231,351.77 "
   id="polygon41" />
				</g>
				<g
   id="Axonometric_Cube_22_">
					<polygon
   id="Cube_face_-_right_169_"
   style="fill:#eeb124"
   points="238.539,351.014 198.699,374.016 198.699,371.151 238.539,348.149 " />
					<polygon
   style="fill:#463c37"
   points="199.699,371.728 237.539,349.882 237.539,350.437 199.699,372.284 "
   id="polygon42" />
					<polygon
   id="Cube_face_-_top_183_"
   style="fill:#ffce40"
   points="198.699,371.151 193.433,368.111 233.273,345.109 238.539,348.149 " />
				</g>
				<g
   id="g47">
					<polygon
   style="fill:#eeb124"
   points="199.366,381.829 203.252,379.571 203.26,381.414 199.375,383.672 "
   id="polygon43" />
					<polygon
   style="fill:#ffdf66"
   points="195.717,375.738 199.602,373.48 203.252,379.571 199.366,381.829 "
   id="polygon44" />
					<polygon
   style="fill:#eeb124"
   points="195.729,372.88 199.615,370.622 199.602,373.48 195.717,375.738 "
   id="polygon45" />
					<polygon
   style="fill:#ffce40"
   points="190.451,369.833 194.336,367.575 199.615,370.622 195.729,372.88 "
   id="polygon46" />
					<polygon
   style="fill:#d08b05"
   points="199.366,381.829 199.375,383.672 190.432,378.509 190.451,369.833 195.729,372.88 195.717,375.738 "
   id="polygon47" />
				</g>
				<g
   id="Axonometric_Cube_21_">
					<polygon
   id="Cube_face_-_left_176_"
   style="fill:#d08b05"
   points="210.702,355.437 220.941,356.792 216.995,360.615 211.71,357.564 210.702,358.149 " />
					<polygon
   id="Cube_face_-_right_168_"
   style="fill:#eeb124"
   points="221.181,358.198 216.995,360.615 216.995,359.07 221.181,356.653 " />
					<polygon
   id="Cube_face_-_top_182_"
   style="fill:#ffce40"
   points="216.995,359.07 210.702,355.437 214.888,353.02 221.181,356.653 " />
				</g>
				<g
   id="Axonometric_Cube_20_">
					<polygon
   id="Cube_face_-_left_166_"
   style="fill:#d08b05"
   points="216.978,359.615 222.864,360.312 218.753,365.902 215.748,364.167 216.978,363.464 " />
					<polygon
   id="Cube_face_-_right_166_"
   style="fill:#eeb124"
   points="222.961,363.473 218.753,365.902 218.753,362.686 222.961,360.256 " />
					
						<rect
   id="Cube_face_-_top_181_"
   x="217.53999"
   y="358.16199"
   transform="matrix(0.8657,-0.5005,0.5005,0.8657,-150.6193,158.4307)"
   style="fill:#ffdf66"
   width="4.8590002"
   height="3.5469999" />
				</g>
			</g>
			<g
   id="Axonometric_Cylinder_9_">
				
					<linearGradient
   id="SVGID_00000110468494818799416530000003296049620688940970_"
   gradientUnits="userSpaceOnUse"
   x1="215.5425"
   y1="356.85699"
   x2="219.033"
   y2="356.85699">
					<stop
   offset="0"
   style="stop-color:#D08B05"
   id="stop48" />
					<stop
   offset="1"
   style="stop-color:#EEB124"
   id="stop49" />
				</linearGradient>
				<path
   style="fill:url(#SVGID_00000110468494818799416530000003296049620688940970_)"
   d="m 215.542,355.945 v 0.844 c 0.004,0.255 0.174,0.509 0.511,0.703 0.682,0.393 1.787,0.393 2.468,0 0.345,-0.199 0.515,-0.461 0.511,-0.722 v -0.844 z"
   id="path49" />
				<path
   id="Cylinder_face_3_"
   style="fill:#ffce40"
   d="m 218.522,356.648 c -0.682,0.393 -1.787,0.393 -2.468,0 -0.681,-0.393 -0.681,-1.031 0,-1.425 0.682,-0.394 1.787,-0.394 2.468,0 0.681,0.394 0.681,1.032 0,1.425 z" />
			</g>
		</g>
		<g
   id="g52">
			<path
   style="fill:#3a322e"
   d="m 192.313,377.548 c -0.093,-0.054 -0.177,-0.15 -0.223,-0.257 -0.046,-0.108 -0.047,-0.204 0,-0.258 l 1.337,-1.544 c 0.047,-0.054 0.13,-0.054 0.223,0 0.093,0.054 0.177,0.15 0.223,0.258 l 1.337,3.088 c 0.047,0.108 0.047,0.204 0,0.258 -0.047,0.053 -0.13,0.053 -0.223,0 z"
   id="path50" />
			<path
   style="fill:#db9d12"
   d="m 192.206,377.192 1.337,-1.544 c 0.028,-0.033 0.099,0.008 0.127,0.073 l 1.337,3.088 c 0.028,0.065 -0.007,0.106 -0.064,0.073 l -2.674,-1.544 c -0.056,-0.032 -0.091,-0.113 -0.063,-0.146 z"
   id="path51" />
			<path
   style="fill:#3a322e"
   d="m 193.491,377.325 c -0.032,-0.018 -0.058,-0.058 -0.061,-0.091 l -0.073,-0.939 c -0.028,-0.331 0.449,-0.024 0.423,0.244 l -0.073,0.854 c -0.003,0.03 -0.029,0.039 -0.061,0.021 z m 0.077,0.245 c -0.098,-0.057 -0.178,-0.023 -0.178,0.075 0,0.099 0.08,0.224 0.178,0.281 0.099,0.057 0.178,0.023 0.178,-0.075 0,-0.098 -0.079,-0.224 -0.178,-0.281 z"
   id="path52" />
		</g>
		<g
   id="g53">
			<polygon
   style="fill:#3a322e"
   points="239.341,413.461 239.341,407.991 242.546,409.842 242.546,415.312 "
   id="polygon52" />
			<polygon
   style="fill:#db9d12"
   points="242.409,415.095 239.479,413.404 239.479,408.208 242.409,409.9 "
   id="polygon53" />
			<path
   style="fill:#3a322e"
   d="m 241.49,410.163 -1.136,-0.656 v -0.129 l 1.136,0.656 z m 0.475,0.917 -2.087,-1.205 v 0.129 l 2.087,1.205 z m 0,0.504 -2.087,-1.205 v -0.129 l 2.087,1.205 z m 0,0.375 -2.087,-1.205 v -0.129 l 2.087,1.205 z m 0,0.376 -2.087,-1.205 v -0.129 l 2.087,1.205 z m 0,0.375 -2.087,-1.205 v -0.129 l 2.087,1.205 z m 0,0.375 -2.087,-1.205 v -0.129 l 2.087,1.205 z m 0,0.375 -2.087,-1.205 v -0.129 l 2.087,1.205 z m 0,0.376 -2.087,-1.205 v -0.129 l 2.087,1.205 z m 0,0.375 -2.087,-1.205 v -0.129 l 2.087,1.205 z"
   id="path53" />
		</g>
		<g
   id="g58">
			<g
   id="g55">
				<path
   style="fill:#3a322e"
   d="m 221.55,363.408 c 0.148,-0.086 0.269,-0.276 0.269,-0.424 v -0.497 c 0,-0.148 -0.121,-0.199 -0.269,-0.113 l -1.4,0.808 c -0.148,0.086 -0.269,0.276 -0.269,0.424 v 0.497 c 0,0.148 0.121,0.199 0.269,0.113 z"
   id="path54" />
				<path
   style="fill:#ffbe43"
   d="m 220.149,364.147 1.4,-0.809 c 0.11,-0.064 0.199,-0.204 0.199,-0.314 v -0.497 c 0,-0.11 -0.089,-0.148 -0.199,-0.084 l -1.4,0.809 c -0.11,0.064 -0.199,0.204 -0.199,0.314 v 0.497 c 0,0.11 0.089,0.148 0.199,0.084 z"
   id="path55" />
			</g>
			<g
   id="g57">
				<polygon
   style="fill:#3a322e"
   points="220.201,363.519 221.498,362.77 221.498,362.709 220.201,363.458 "
   id="polygon55" />
				<polygon
   style="fill:#3a322e"
   points="220.201,363.694 221.498,362.946 221.498,362.885 220.201,363.633 "
   id="polygon56" />
				<polygon
   style="fill:#3a322e"
   points="220.201,363.87 221.498,363.121 221.498,363.06 220.201,363.809 "
   id="polygon57" />
			</g>
		</g>
	</g>
	<g
   id="g68">
		<g
   id="g60">
			<g
   id="Axonometric_Cube_24_">
				<polygon
   id="Cube_face_-_left_249_"
   style="fill:#2c2623"
   points="167.865,404.751 163.466,402.212 163.466,396.842 167.865,399.382 " />
				<polygon
   id="Cube_face_-_right_235_"
   style="fill:#3a322e"
   points="180.572,392.045 180.572,394.691 181.186,397.06 167.865,404.751 167.865,399.382 " />
				<polygon
   id="Cube_face_-_top_244_"
   style="fill:#463c37"
   points="167.865,399.382 163.466,396.842 176.173,389.506 180.572,392.045 " />
			</g>
			<g
   id="Axonometric_Cube_23_">
				<polygon
   id="Cube_face_-_left_248_"
   style="fill:#2c2623"
   points="166.133,398.384 163.466,396.845 163.466,382.932 166.133,384.472 " />
				<polygon
   id="Cube_face_-_right_234_"
   style="fill:#3a322e"
   points="167.815,397.413 166.133,398.384 166.133,384.472 167.815,383.5 " />
				<polygon
   id="Cube_face_-_top_243_"
   style="fill:#463c37"
   points="166.133,384.472 163.466,382.932 165.148,381.961 167.815,383.5 " />
			</g>
		</g>
		<path
   style="fill:#c23030"
   d="m 166.739,374.35 c -1.564,-0.324 -3.049,-0.18 -3.546,0.453 -0.124,0.076 -0.232,0.167 -0.319,0.276 -0.125,0.077 -0.233,0.168 -0.321,0.277 -0.791,0.487 -0.806,1.635 -0.421,3.37 0.301,1.351 -0.208,3.074 -0.196,3.815 0.447,-0.241 0.892,-0.485 1.337,-0.729 -0.025,-0.701 0.516,-2.477 0.22,-3.821 -0.114,-0.525 -0.223,-1.054 -0.266,-1.587 -0.023,-0.281 -0.059,-0.607 0.162,-0.873 0.249,-0.269 1.678,-0.173 2.093,-0.094 l 0.298,-0.258 c -0.249,-0.051 -0.487,-0.095 -0.703,-0.123 0.217,0.02 0.461,0.058 0.723,0.106 l 0.301,-0.26 c -0.244,-0.05 -0.477,-0.093 -0.691,-0.121 0.214,0.02 0.454,0.057 0.71,0.104 l 0.301,-0.26 c -0.242,-0.05 -0.473,-0.092 -0.685,-0.12 0.213,0.02 0.45,0.056 0.704,0.104 z"
   id="path60" />
		<g
   id="g67">
			<g
   style="enable-background:new"
   id="g65">
				<g
   id="g61">
					<polygon
   style="fill:#f2efeb"
   points="159.615,378.362 171.951,371.213 175.759,373.411 163.424,380.561 "
   id="polygon60" />
				</g>
				<g
   id="g62">
					<polygon
   style="fill:#e1ddd7"
   points="167.282,385.667 179.617,378.518 179.614,379.604 167.279,386.753 "
   id="polygon61" />
				</g>
				<g
   id="g63">
					<polygon
   style="fill:#f6f3ef"
   points="163.424,380.561 175.759,373.411 179.617,378.518 167.282,385.667 "
   id="polygon62" />
				</g>
				<g
   id="g64">
					<polygon
   style="fill:#c8c4ba"
   points="159.621,382.332 159.615,378.362 163.424,380.561 167.282,385.667 167.279,386.753 "
   id="polygon63" />
				</g>
			</g>
			<g
   id="g66">
				<path
   style="fill:#473f3c"
   d="m 175.141,374.484 -10.195,5.812 c -0.216,0.122 -0.247,0.334 -0.08,0.557 l 2.585,3.436 c 0.128,0.171 0.495,0.265 0.659,0.169 l 10.15,-5.88 c 0.215,-0.125 0.245,-0.336 0.081,-0.554 l -2.543,-3.373 c -0.125,-0.167 -0.491,-0.26 -0.657,-0.167 z"
   id="path65" />
				<polygon
   style="fill:#829b39"
   points="177.936,378.193 173.377,380.777 170.798,377.372 175.364,374.801 "
   id="polygon65" />
				<polygon
   style="opacity:0.7;fill:#687a29"
   points="177.936,378.193 175.364,374.801 170.798,377.372 170.893,377.498 175.235,375.054 177.711,378.321 "
   id="polygon66" />
			</g>
			<path
   style="fill:#60574f"
   d="m 167.266,380.737 -0.064,-0.861 0.882,0.394 z m 1.329,1.763 0.881,0.392 -0.065,-0.863 z m -1.522,-0.909 -0.434,0.77 0.981,-0.043 z m 2.531,-0.416 0.435,-0.768 -0.98,0.045 z m -1.6,0.401 c 0.124,0.164 0.374,0.211 0.559,0.105 0.185,-0.107 0.234,-0.326 0.111,-0.49 -0.124,-0.164 -0.374,-0.211 -0.559,-0.105 -0.185,0.107 -0.235,0.326 -0.111,0.49 z m 3.884,-1.163 c 0.062,0.083 0.189,0.105 0.282,0.052 0.094,-0.054 0.119,-0.165 0.057,-0.247 -0.062,-0.082 -0.189,-0.105 -0.282,-0.052 -0.094,0.054 -0.119,0.165 -0.057,0.247 z m -0.802,0.463 c 0.062,0.083 0.189,0.106 0.282,0.052 0.093,-0.054 0.119,-0.165 0.057,-0.247 -0.062,-0.083 -0.189,-0.106 -0.282,-0.052 -0.094,0.054 -0.119,0.165 -0.057,0.247 z m 0.683,0.316 -0.302,-0.133 0.022,0.296 z m 0.801,-0.464 -0.302,-0.133 0.021,0.295 z m -1.41,-1.279 c 0.062,0.082 0.189,0.106 0.282,0.052 0.094,-0.054 0.119,-0.164 0.057,-0.247 -0.062,-0.082 -0.189,-0.106 -0.282,-0.052 -0.094,0.054 -0.119,0.164 -0.057,0.247 z m -0.803,0.461 c 0.062,0.083 0.189,0.106 0.283,0.052 0.094,-0.054 0.119,-0.164 0.057,-0.247 -0.062,-0.083 -0.189,-0.106 -0.283,-0.052 -0.094,0.054 -0.12,0.164 -0.057,0.247 z m 0.434,0.484 0.15,-0.264 -0.337,0.016 z m 0.802,-0.462 0.15,-0.263 -0.336,0.016 z m -1.199,-1.497 c 0.062,0.082 0.189,0.106 0.283,0.052 0.094,-0.054 0.119,-0.164 0.057,-0.246 -0.062,-0.082 -0.189,-0.106 -0.283,-0.052 -0.093,0.053 -0.119,0.164 -0.057,0.246 z m -0.804,0.459 c 0.062,0.083 0.189,0.106 0.283,0.053 0.094,-0.054 0.119,-0.164 0.057,-0.247 -0.062,-0.083 -0.189,-0.106 -0.283,-0.053 -0.094,0.054 -0.119,0.164 -0.057,0.247 z m 0.684,0.317 -0.302,-0.134 0.021,0.295 z m 0.804,-0.459 -0.302,-0.134 0.021,0.295 z"
   id="path66" />
		</g>
	</g>
	<g
   id="g84">
		<g
   id="g83">
			<g
   style="enable-background:new"
   id="g71">
				
					<linearGradient
   id="SVGID_00000039844049034918665250000009860434061819621261_"
   gradientUnits="userSpaceOnUse"
   x1="170.6657"
   y1="369.21729"
   x2="172.8224"
   y2="369.21729">
					<stop
   offset="0"
   style="stop-color:#C8C4BA"
   id="stop68" />
					<stop
   offset="0.1009"
   style="stop-color:#CBC7BD"
   id="stop69" />
					<stop
   offset="1"
   style="stop-color:#E1DDD7"
   id="stop70" />
				</linearGradient>
				<path
   style="fill:url(#SVGID_00000039844049034918665250000009860434061819621261_)"
   d="m 172.51,364.983 c -0.418,0.243 -1.102,0.243 -1.523,0 -0.212,-0.122 -0.318,-0.283 -0.317,-0.444 l -0.004,8.731 c -0.001,0.161 0.105,0.322 0.317,0.444 0.421,0.243 1.104,0.243 1.523,0 0.208,-0.121 0.312,-0.279 0.312,-0.438 l 0.004,-8.731 c 0,0.158 -0.104,0.317 -0.312,0.438 z"
   id="path70" />
				<path
   style="fill:#f2efeb"
   d="m 172.505,364.1 c -0.421,-0.243 -1.104,-0.243 -1.523,0 -0.418,0.243 -0.416,0.639 0.005,0.882 0.421,0.243 1.104,0.243 1.523,0 0.418,-0.243 0.416,-0.638 -0.005,-0.882 z"
   id="path71" />
			</g>
			<g
   id="g78">
				
					<linearGradient
   id="SVGID_00000111187074039000150040000015124061783599921825_"
   gradientUnits="userSpaceOnUse"
   x1="170.3358"
   y1="364.5502"
   x2="173.162"
   y2="364.5502">
					<stop
   offset="0"
   style="stop-color:#C8C4BA"
   id="stop71" />
					<stop
   offset="0.1009"
   style="stop-color:#CBC7BD"
   id="stop72" />
					<stop
   offset="1"
   style="stop-color:#E1DDD7"
   id="stop73" />
				</linearGradient>
				<path
   style="fill:url(#SVGID_00000111187074039000150040000015124061783599921825_)"
   d="m 172.734,363.943 c -0.559,0.314 -1.453,0.305 -1.997,-0.02 -0.267,-0.16 -0.4,-0.366 -0.4,-0.572 l -10e-4,1.576 c -0.001,0.206 0.132,0.412 0.4,0.572 0.544,0.325 1.438,0.334 1.997,0.02 0.284,-0.16 0.427,-0.372 0.428,-0.585 l 0.002,-1.576 c -0.002,0.214 -0.145,0.426 -0.429,0.585 z"
   id="path73" />
				<path
   style="fill:#c4c4c4"
   d="m 172.762,362.787 c -0.544,-0.325 -1.438,-0.334 -1.997,-0.02 -0.559,0.314 -0.572,0.832 -0.028,1.157 0.544,0.325 1.438,0.334 1.997,0.02 0.559,-0.314 0.572,-0.832 0.028,-1.157 z"
   id="path74" />
				<path
   style="fill:#f2efeb"
   d="m 172.763,362.532 c -0.34,-0.186 -0.643,-0.265 -1.011,-0.27 -0.501,-0.007 -0.866,0.186 -0.986,0.25 -0.559,0.314 -0.572,0.832 -0.028,1.157 0.544,0.325 1.438,0.334 1.997,0.02 0.559,-0.314 0.572,-0.832 0.028,-1.157 z"
   id="path75" />
				<path
   style="fill:#e6e6e6"
   d="m 172.014,362.599 c -0.141,-0.084 -0.373,-0.087 -0.518,-0.005 -0.145,0.081 -0.148,0.216 -0.007,0.3 0.141,0.084 0.373,0.087 0.518,0.005 0.145,-0.081 0.148,-0.215 0.007,-0.3 z"
   id="path76" />
				
					<linearGradient
   id="SVGID_00000011726790116968814280000007931392858027528894_"
   gradientUnits="userSpaceOnUse"
   x1="170.3378"
   y1="363.5531"
   x2="173.1627"
   y2="363.5531">
					<stop
   offset="0"
   style="stop-color:#C8C4BA"
   id="stop76" />
					<stop
   offset="0.1009"
   style="stop-color:#CBC7BD"
   id="stop77" />
					<stop
   offset="1"
   style="stop-color:#E1DDD7"
   id="stop78" />
				</linearGradient>
				<path
   style="fill:url(#SVGID_00000011726790116968814280000007931392858027528894_)"
   d="m 172.735,363.689 c -0.559,0.314 -1.454,0.305 -1.997,-0.02 -0.267,-0.16 -0.4,-0.366 -0.4,-0.572 v 0.092 c -0.001,0.206 0.132,0.412 0.4,0.572 0.544,0.325 1.438,0.334 1.997,0.02 0.284,-0.159 0.427,-0.372 0.428,-0.585 v -0.092 c -0.001,0.213 -0.144,0.425 -0.428,0.585 z"
   id="path78" />
			</g>
			<g
   id="g82">
				<g
   id="g81">
					<g
   style="enable-background:new"
   id="g80">
						<path
   style="fill:#f2efeb"
   d="m 170.369,364.138 c 0.089,-0.052 0.212,-0.044 0.349,0.034 0.269,0.155 0.487,0.533 0.486,0.841 0,0.155 -0.055,0.263 -0.143,0.314 l -5.382,3.104 c 0.088,-0.051 0.142,-0.16 0.143,-0.314 0.001,-0.309 -0.217,-0.686 -0.486,-0.841 -0.136,-0.079 -0.26,-0.086 -0.349,-0.034 z"
   id="path79" />
						<path
   style="fill:#c8c4ba"
   d="m 165.336,367.277 c 0.269,0.155 0.487,0.533 0.486,0.841 -0.001,0.311 -0.22,0.436 -0.489,0.281 -0.271,-0.156 -0.488,-0.534 -0.488,-0.845 0.001,-0.308 0.22,-0.433 0.491,-0.277 z"
   id="path80" />
					</g>
				</g>
			</g>
		</g>
		<g
   id="Axonometric_Cube_173_">
			<polygon
   id="Cube_face_-_left_1830_"
   style="fill:#c8c4ba"
   points="157.181,377.001 156.818,376.792 156.818,365.963 157.181,366.173 " />
			<polygon
   id="Cube_face_-_right_1758_"
   style="fill:#e1ddd7"
   points="170.028,369.585 157.181,377.001 157.181,366.173 170.028,358.756 " />
			<polygon
   style="fill:#3a322e"
   points="157.561,366.392 169.647,359.414 169.647,369.365 157.561,376.343 "
   id="polygon83" />
			<polygon
   id="Cube_face_-_top_1763_"
   style="fill:#f2efeb"
   points="157.181,366.173 156.818,365.963 169.665,358.546 170.028,358.756 " />
		</g>
	</g>
</g>










</svg>
