<?xml version="1.0" encoding="UTF-8" standalone="no"?>
<!-- Generator: Adobe Illustrator 27.5.0, SVG Export Plug-In . SVG Version: 6.00 Build 0)  -->

<svg
   version="1.1"
   x="0px"
   y="0px"
   viewBox="0 0 103 97"
   xml:space="preserve"
   sodipodi:docname="NestingCNC.svg"
   inkscape:version="1.3.2 (091e20e, 2023-11-25, custom)"
   width="100%"
   height="100%"
   xmlns:inkscape="http://www.inkscape.org/namespaces/inkscape"
   xmlns:sodipodi="http://sodipodi.sourceforge.net/DTD/sodipodi-0.dtd"
   xmlns="http://www.w3.org/2000/svg"
   xmlns:svg="http://www.w3.org/2000/svg"><defs
   id="defs665" /><sodipodi:namedview
   id="namedview665"
   pagecolor="#ffffff"
   bordercolor="#000000"
   borderopacity="0.25"
   inkscape:showpageshadow="2"
   inkscape:pageopacity="0.0"
   inkscape:pagecheckerboard="0"
   inkscape:deskcolor="#d1d1d1"
   inkscape:zoom="4.5443396"
   inkscape:cx="46.871497"
   inkscape:cy="41.480175"
   inkscape:window-width="2560"
   inkscape:window-height="1009"
   inkscape:window-x="1912"
   inkscape:window-y="-8"
   inkscape:window-maximized="1"
   inkscape:current-layer="_x30_" />
<g
   id="_x31__1_"
   transform="translate(-181.9745,-128.394)">
	<path
   style="fill:#3a322e"
   d="m 187.818,151.634 c 1.564,-0.324 3.049,-0.18 3.546,0.453 0.124,0.076 0.231,0.167 0.318,0.276 0.125,0.077 0.233,0.168 0.321,0.277 0.791,0.487 0.806,1.635 0.421,3.371 -0.301,1.35 -0.381,2.275 -0.155,3.77 0.222,1.472 0.364,2.494 0.351,3.234 -0.447,-0.241 -0.892,-0.485 -1.337,-0.729 0.025,-0.701 -0.108,-1.725 -0.344,-3.297 -0.206,-1.363 -0.172,-2.369 0.125,-3.714 0.114,-0.525 0.223,-1.054 0.266,-1.587 0.023,-0.281 0.059,-0.607 -0.162,-0.873 -0.249,-0.269 -1.678,-0.173 -2.093,-0.094 l -0.298,-0.258 c 0.249,-0.051 0.487,-0.095 0.703,-0.123 -0.217,0.02 -0.461,0.058 -0.723,0.106 l -0.3,-0.26 c 0.244,-0.05 0.477,-0.093 0.691,-0.121 -0.214,0.02 -0.454,0.057 -0.71,0.104 l -0.301,-0.26 c 0.242,-0.049 0.473,-0.092 0.685,-0.12 -0.213,0.02 -0.45,0.056 -0.704,0.104 z"
   id="path1" />
	<g
   id="g5">
		<polygon
   style="fill:#eeb124"
   points="238.879,146.532 242.765,144.274 242.774,158.299 238.888,160.557 "
   id="polygon1" />
		<polygon
   style="fill:#ffdf66"
   points="235.23,138.941 239.115,136.683 242.765,144.274 238.879,146.532 "
   id="polygon2" />
		<polygon
   style="fill:#eeb124"
   points="235.242,134.583 239.128,132.325 239.115,136.683 235.23,138.941 "
   id="polygon3" />
		<polygon
   style="fill:#ffce40"
   points="231.696,132.536 235.582,130.278 239.128,132.325 235.242,134.583 "
   id="polygon4" />
		<polygon
   style="fill:#d08b05"
   points="238.879,146.532 238.888,160.557 231.677,156.394 231.696,132.536 235.242,134.583 235.23,138.941 "
   id="polygon5" />
	</g>
	<g
   id="Axonometric_Cube_7_">
		<polygon
   id="Cube_face_-_left_119_"
   style="fill:#2c2623"
   points="246.984,225.095 242.533,222.525 242.533,216.249 246.984,218.819 " />
		<polygon
   id="Cube_face_-_right_120_"
   style="fill:#3a322e"
   points="251.609,222.424 246.984,225.095 246.984,218.819 251.609,216.148 " />
	</g>
	<g
   id="Axonometric_Cube_9_">
		<polygon
   id="Cube_face_-_left_121_"
   style="fill:#2c2623"
   points="192.216,193.475 187.765,190.905 187.765,184.629 192.216,187.198 " />
		<polygon
   id="Cube_face_-_right_122_"
   style="fill:#3a322e"
   points="196.841,190.804 192.216,193.475 192.216,187.198 196.841,184.528 " />
	</g>
	<g
   id="Axonometric_Cube_8_">
		<polygon
   id="Cube_face_-_left_120_"
   style="fill:#2c2623"
   points="279.365,206.4 274.914,203.83 274.914,197.554 279.365,200.124 " />
		<polygon
   id="Cube_face_-_right_121_"
   style="fill:#3a322e"
   points="283.99,203.729 279.365,206.4 279.365,200.124 283.99,197.453 " />
	</g>
	<g
   id="Axonometric_Cube_2_">
		<polygon
   id="Cube_face_-_left_76_"
   style="fill:#d08b05"
   points="246.984,222.368 187.746,188.167 187.746,168.511 246.984,202.712 " />
		<polygon
   id="Cube_face_-_right_76_"
   style="fill:#eeb124"
   points="283.994,201 246.984,222.368 246.984,202.712 283.994,181.344 " />
	</g>
	<g
   id="Axonometric_Cube">
		<polygon
   id="Cube_face_-_left_73_"
   style="fill:#2c2623"
   points="246.984,208.481 186.621,173.63 186.621,165.611 246.984,200.462 " />
		<polygon
   style="fill:#211c1a"
   points="187.621,171.683 187.621,168.973 245.985,202.669 245.985,205.379 "
   id="polygon6" />
		<polygon
   id="Cube_face_-_right_73_"
   style="fill:#3a322e"
   points="284.947,186.563 246.984,208.481 246.984,200.462 284.947,178.544 " />
		<polygon
   id="Cube_face_-_top_73_"
   style="fill:#ffce40"
   points="246.984,200.462 186.621,165.611 224.583,143.693 284.947,178.544 " />
	</g>
	<g
   id="Axonometric_Cube_12_">
		<polygon
   id="Cube_face_-_left_124_"
   style="fill:#949494"
   points="246.984,200.681 186.621,165.83 186.621,164.811 246.984,199.662 " />
		<polygon
   id="Cube_face_-_right_125_"
   style="fill:#b2b2b2"
   points="284.947,178.763 246.984,200.681 246.984,199.662 284.947,177.744 " />

			<linearGradient
   id="Cube_face_-_top_00000131342071729996930000000010092523232036773286_"
   gradientUnits="userSpaceOnUse"
   x1="186.62061"
   y1="171.2776"
   x2="284.94711"
   y2="171.2776">
			<stop
   offset="0"
   style="stop-color:#E4E4E4"
   id="stop6" />
			<stop
   offset="0.6404"
   style="stop-color:#D1D1D1"
   id="stop7" />
			<stop
   offset="0.6453"
   style="stop-color:#DCDCDC"
   id="stop8" />
		</linearGradient>

			<polygon
   id="Cube_face_-_top_120_"
   style="fill:url(#Cube_face_-_top_00000131342071729996930000000010092523232036773286_)"
   points="246.984,199.662 186.621,164.811 224.583,142.893 284.947,177.744 " />
		<path
   style="fill:#b2b2b2"
   d="m 283.298,178.696 -60.364,-34.851 0.446,-0.257 60.364,34.851 z m -1.633,0.943 -60.364,-34.851 -0.446,0.257 60.364,34.851 z m -2.079,1.201 -60.364,-34.851 -0.446,0.257 60.364,34.851 z m -2.079,1.2 -60.364,-34.851 -0.446,0.257 60.364,34.851 z m -2.079,1.2 -60.364,-34.851 -0.446,0.257 60.364,34.851 z m -2.079,1.201 -60.364,-34.851 -0.446,0.257 60.364,34.851 z m -2.079,1.2 -60.364,-34.851 -0.446,0.257 60.364,34.851 z m -2.08,1.2 -60.364,-34.851 -0.446,0.257 60.364,34.851 z m -2.079,1.201 -60.364,-34.851 -0.446,0.257 60.364,34.851 z m -2.079,1.2 -60.364,-34.851 -0.446,0.257 60.364,34.851 z m -2.079,1.2 -60.364,-34.851 -0.446,0.257 60.364,34.851 z m -2.079,1.201 -60.364,-34.851 -0.446,0.257 60.364,34.851 z m -2.079,1.2 -60.364,-34.851 -0.446,0.257 60.365,34.851 z m -2.079,1.2 -60.364,-34.851 -0.446,0.257 60.364,34.851 z m -2.079,1.201 -60.364,-34.851 -0.446,0.257 60.364,34.851 z m -2.079,1.2 -60.364,-34.851 -0.446,0.257 60.364,34.851 z m -2.079,1.201 -60.364,-34.851 -0.446,0.257 60.364,34.851 z m -2.079,1.2 -60.364,-34.851 -0.446,0.257 60.364,34.851 z"
   id="path8" />
	</g>
	<g
   id="g12">
		<g
   id="Axonometric_Cube_16_">
			<polygon
   id="Cube_face_-_left_160_"
   style="fill:#d08b05"
   points="190.38,173.911 182.002,169.074 182.002,151.601 190.38,156.438 " />
			<polygon
   id="Cube_face_-_left_161_"
   style="fill:#2c2623"
   points="190.38,166.42 182.002,161.583 182.002,151.601 190.38,156.438 " />
			<polygon
   id="Cube_face_-_right_161_"
   style="fill:#eeb124"
   points="193.38,172.178 190.38,173.911 190.38,156.438 193.38,154.705 " />
			<polygon
   id="Cube_face_-_top_177_"
   style="fill:#ffce40"
   points="190.38,156.438 182.002,151.601 185.003,149.869 193.38,154.705 " />
		</g>
		<g
   id="g11">
			<path
   style="fill:#74a33c"
   d="m 185.102,158.463 c -0.149,-0.385 -0.061,-0.716 0.198,-0.739 0.259,-0.023 0.59,0.27 0.739,0.655 0.149,0.385 0.061,0.716 -0.198,0.739 -0.258,0.023 -0.589,-0.27 -0.739,-0.655 z"
   id="path9" />
			<path
   style="fill:#bf3030"
   d="m 183.518,157.548 c -0.149,-0.385 -0.061,-0.716 0.198,-0.739 0.259,-0.023 0.59,0.27 0.739,0.655 0.149,0.385 0.061,0.716 -0.198,0.739 -0.259,0.023 -0.59,-0.27 -0.739,-0.655 z"
   id="path10" />
			<path
   style="fill:#949494"
   d="m 187.826,160.477 c -0.047,-0.121 -0.019,-0.225 0.062,-0.232 0.081,-0.007 0.186,0.085 0.232,0.206 0.047,0.121 0.019,0.225 -0.062,0.232 -0.08,0.007 -0.185,-0.085 -0.232,-0.206 z m -0.475,-0.203 c 0.081,-0.007 0.109,-0.111 0.062,-0.232 -0.047,-0.121 -0.151,-0.214 -0.232,-0.206 -0.081,0.007 -0.109,0.111 -0.062,0.232 0.047,0.121 0.151,0.213 0.232,0.206 z m 0.708,-0.322 c 0.081,-0.007 0.109,-0.111 0.062,-0.232 -0.047,-0.121 -0.151,-0.214 -0.232,-0.206 -0.081,0.007 -0.109,0.111 -0.062,0.233 0.046,0.12 0.151,0.213 0.232,0.205 z m -0.708,-0.408 c 0.081,-0.007 0.109,-0.111 0.062,-0.232 -0.047,-0.121 -0.151,-0.214 -0.232,-0.206 -0.081,0.007 -0.109,0.111 -0.062,0.232 0.047,0.121 0.151,0.213 0.232,0.206 z m 0.708,-0.322 c 0.081,-0.007 0.109,-0.111 0.062,-0.232 -0.047,-0.121 -0.151,-0.213 -0.232,-0.206 -0.081,0.007 -0.109,0.111 -0.062,0.233 0.046,0.12 0.151,0.213 0.232,0.205 z m -0.708,-0.408 c 0.081,-0.007 0.109,-0.111 0.062,-0.233 -0.047,-0.121 -0.151,-0.214 -0.232,-0.206 -0.081,0.007 -0.109,0.111 -0.062,0.232 0.047,0.122 0.151,0.214 0.232,0.207 z m 2.163,2.709 c 0.081,-0.007 0.109,-0.111 0.062,-0.232 -0.047,-0.121 -0.151,-0.214 -0.232,-0.206 -0.081,0.007 -0.109,0.111 -0.062,0.232 0.047,0.121 0.151,0.213 0.232,0.206 z m -0.708,-0.409 c 0.081,-0.007 0.109,-0.111 0.062,-0.232 -0.047,-0.121 -0.151,-0.214 -0.233,-0.206 -0.081,0.007 -0.109,0.111 -0.062,0.232 0.048,0.121 0.152,0.214 0.233,0.206 z m 0.708,-0.321 c 0.081,-0.007 0.109,-0.111 0.062,-0.232 -0.047,-0.121 -0.151,-0.213 -0.232,-0.206 -0.081,0.007 -0.109,0.111 -0.062,0.233 0.047,0.12 0.151,0.212 0.232,0.205 z m -0.708,-0.409 c 0.081,-0.007 0.109,-0.111 0.062,-0.232 -0.047,-0.121 -0.151,-0.214 -0.233,-0.206 -0.081,0.007 -0.109,0.111 -0.062,0.232 0.048,0.121 0.152,0.213 0.233,0.206 z m 0.708,-0.322 c 0.081,-0.007 0.109,-0.111 0.062,-0.232 -0.047,-0.121 -0.151,-0.213 -0.232,-0.206 -0.081,0.007 -0.109,0.111 -0.062,0.233 0.047,0.12 0.151,0.213 0.232,0.205 z m -0.708,-0.408 c 0.081,-0.007 0.109,-0.111 0.062,-0.232 -0.047,-0.121 -0.151,-0.214 -0.233,-0.206 -0.081,0.007 -0.109,0.111 -0.062,0.232 0.048,0.121 0.152,0.213 0.233,0.206 z m -0.733,-3.034 c 0.081,-0.007 0.109,-0.111 0.062,-0.233 -0.047,-0.121 -0.151,-0.213 -0.232,-0.206 -0.081,0.007 -0.109,0.111 -0.062,0.233 0.047,0.121 0.151,0.213 0.232,0.206 z m 1.456,0.84 c 0.081,-0.007 0.109,-0.111 0.062,-0.233 -0.047,-0.121 -0.151,-0.213 -0.232,-0.206 -0.081,0.007 -0.109,0.111 -0.062,0.232 0.046,0.122 0.15,0.214 0.232,0.207 z m -4.321,-2.495 c 0.081,-0.007 0.109,-0.111 0.062,-0.232 -0.047,-0.121 -0.151,-0.214 -0.233,-0.206 -0.081,0.007 -0.109,0.111 -0.062,0.232 0.047,0.121 0.151,0.214 0.233,0.206 z m 1.455,0.841 c 0.081,-0.007 0.109,-0.111 0.062,-0.232 -0.047,-0.121 -0.151,-0.214 -0.232,-0.206 -0.081,0.007 -0.109,0.111 -0.062,0.232 0.046,0.121 0.151,0.213 0.232,0.206 z"
   id="path11" />
		</g>
	</g>
	<g
   id="g16">
		<g
   id="g15">
			<linearGradient
   id="SVGID_1_"
   gradientUnits="userSpaceOnUse"
   x1="216.88651"
   y1="156.66"
   x2="218.50169"
   y2="156.66">
				<stop
   offset="0"
   style="stop-color:#A3A3A3"
   id="stop12" />
				<stop
   offset="1"
   style="stop-color:#CFCFCF"
   id="stop13" />
			</linearGradient>
			<path
   style="fill:url(#SVGID_1_)"
   d="m 218.5,155.443 -1.614,-0.005 0.002,1.974 c 0,0.12 0.079,0.241 0.239,0.333 0.315,0.182 0.826,0.183 1.141,0 0.156,-0.091 0.234,-0.209 0.234,-0.328 z"
   id="path13" />

				<linearGradient
   id="SVGID_00000041997693018263473950000013991345026083378105_"
   gradientUnits="userSpaceOnUse"
   x1="216.3512"
   y1="155.8674"
   x2="219.0475"
   y2="155.8674">
				<stop
   offset="0"
   style="stop-color:#2D2B2A"
   id="stop14" />
				<stop
   offset="1"
   style="stop-color:#383534"
   id="stop15" />
			</linearGradient>
			<path
   style="fill:url(#SVGID_00000041997693018263473950000013991345026083378105_)"
   d="m 219.046,154.878 c -0.002,-0.198 -2.694,0.075 -2.695,0.011 v 1.27 c 0.003,0.197 0.135,0.393 0.395,0.543 0.527,0.304 1.38,0.304 1.907,0 0.266,-0.154 0.398,-0.356 0.395,-0.558 v -1.263 c 0,-0.005 -0.002,-0.004 -0.002,-0.003 z"
   id="path15" />
		</g>
		<g
   id="Axonometric_Cube_15_">
			<polygon
   style="fill:#d08b05"
   points="215.944,146.598 215.944,155.307 217.689,156.315 217.689,146.598 "
   id="polygon15" />
			<polygon
   style="fill:#eeb124"
   points="217.689,146.598 217.689,156.315 219.466,155.289 219.466,146.598 "
   id="polygon16" />
		</g>
	</g>
	<g
   id="Axonometric_Cube_5_">
		<polygon
   id="Cube_face_-_right_118_"
   style="fill:#eeb124"
   points="236.538,138.186 196.854,161.098 196.854,156.733 236.538,133.821 " />
		<polygon
   id="Cube_face_-_top_118_"
   style="fill:#ffce40"
   points="196.854,156.733 193.32,154.693 233.004,131.781 236.538,133.821 " />
	</g>
	<g
   id="g21">
		<polygon
   style="fill:#eeb124"
   points="197.52,170.411 201.406,168.153 201.415,182.178 197.529,184.436 "
   id="polygon17" />
		<polygon
   style="fill:#ffdf66"
   points="193.871,162.82 197.757,160.562 201.406,168.153 197.52,170.411 "
   id="polygon18" />
		<polygon
   style="fill:#eeb124"
   points="193.883,158.462 197.769,156.204 197.757,160.562 193.871,162.82 "
   id="polygon19" />
		<polygon
   style="fill:#ffce40"
   points="190.337,156.414 194.223,154.156 197.769,156.204 193.883,158.462 "
   id="polygon20" />
		<polygon
   style="fill:#d08b05"
   points="197.52,170.411 197.529,184.436 190.318,180.273 190.337,156.414 193.883,158.462 193.871,162.82 "
   id="polygon21" />
	</g>
	<polygon
   style="fill:#3a322e"
   points="194.985,159.666 238.267,134.677 238.267,136.033 194.985,161.021 "
   id="polygon22" />
	<g
   id="Axonometric_Cube_53_">
		<polygon
   id="Cube_face_-_left_1054_"
   style="fill:#d08b05"
   points="210.588,138.919 219.096,139.274 215.149,146.197 211.597,144.146 210.588,144.731 " />
		<polygon
   id="Cube_face_-_right_1051_"
   style="fill:#eeb124"
   points="219.336,143.78 215.149,146.197 215.149,141.552 219.336,139.135 " />
		<polygon
   id="Cube_face_-_top_1053_"
   style="fill:#ffce40"
   points="215.149,141.552 210.588,138.919 214.775,136.502 219.336,139.135 " />
	</g>
	<g
   id="Axonometric_Cube_55_">
		<polygon
   id="Cube_face_-_left_1100_"
   style="fill:#d08b05"
   points="215.132,143.197 221.019,143.894 216.908,152.984 213.902,151.249 215.132,150.545 " />
		<polygon
   id="Cube_face_-_right_1097_"
   style="fill:#eeb124"
   points="221.116,150.554 216.908,152.984 216.908,146.268 221.116,143.838 " />

			<rect
   id="Cube_face_-_top_1099_"
   x="215.694"
   y="141.744"
   transform="matrix(0.8657,-0.5005,0.5005,0.8657,-42.5448,128.447)"
   style="fill:#ffdf66"
   width="4.8590002"
   height="3.5469999" />
	</g>
	<g
   id="g26">
		<g
   id="g23">
			<path
   style="fill:#3a322e"
   d="m 212.287,143.713 c -0.148,-0.086 -0.269,-0.276 -0.269,-0.424 v -0.497 c 0,-0.148 0.121,-0.199 0.269,-0.113 l 1.4,0.809 c 0.148,0.086 0.269,0.276 0.269,0.424 v 0.497 c 0,0.148 -0.121,0.199 -0.269,0.113 z"
   id="path22" />
			<path
   style="fill:#db9d12"
   d="m 213.688,144.452 -1.4,-0.808 c -0.11,-0.063 -0.199,-0.204 -0.199,-0.314 v -0.497 c 0,-0.11 0.089,-0.148 0.199,-0.084 l 1.4,0.808 c 0.11,0.064 0.199,0.204 0.199,0.314 v 0.497 c 0,0.11 -0.089,0.148 -0.199,0.084 z"
   id="path23" />
		</g>
		<g
   id="g25">
			<polygon
   style="fill:#3a322e"
   points="213.636,143.823 212.339,143.075 212.339,143.014 213.636,143.762 "
   id="polygon23" />
			<polygon
   style="fill:#3a322e"
   points="213.636,143.999 212.339,143.25 212.339,143.189 213.636,143.938 "
   id="polygon24" />
			<polygon
   style="fill:#3a322e"
   points="213.636,144.174 212.339,143.426 212.339,143.365 213.636,144.113 "
   id="polygon25" />
		</g>
	</g>
	<g
   id="Axonometric_Cube_13_">
		<polygon
   id="Cube_face_-_top_309_"
   style="fill:#ffce40"
   points="215.669,132.396 212.517,130.576 215.779,128.693 218.93,130.513 " />
		<polygon
   id="Cube_face_-_left_313_"
   style="fill:#d08b05"
   points="215.669,141.257 212.517,139.438 212.517,130.576 215.669,132.396 " />
		<polygon
   id="Cube_face_-_right_309_"
   style="fill:#eeb124"
   points="218.93,139.374 215.669,141.257 215.669,132.396 218.93,130.513 " />
	</g>
	<g
   id="Axonometric_Cube_14_">
		<polygon
   id="Cube_face_-_top_140_"
   style="fill:#ffce40"
   points="219.128,147.232 218.458,146.845 219.869,146.03 220.539,146.417 " />
		<polygon
   id="Cube_face_-_left_125_"
   style="fill:#d08b05"
   points="219.128,152.464 218.458,152.077 218.458,146.845 219.128,147.232 " />
		<polygon
   id="Cube_face_-_right_126_"
   style="fill:#eeb124"
   points="220.539,151.65 219.128,152.464 219.128,147.232 220.539,146.417 " />
	</g>
	<g
   id="g30">
		<g
   id="g28">
			<path
   style="fill:#3a322e"
   d="m 192.617,169.755 c -0.093,-0.054 -0.177,-0.15 -0.223,-0.257 -0.046,-0.107 -0.047,-0.204 0,-0.258 l 1.337,-1.544 c 0.047,-0.054 0.13,-0.054 0.223,0 0.093,0.054 0.177,0.15 0.223,0.258 l 1.337,3.087 c 0.047,0.108 0.047,0.204 0,0.258 -0.047,0.053 -0.13,0.053 -0.223,0 z"
   id="path26" />
			<path
   style="fill:#db9d12"
   d="m 192.511,169.399 1.337,-1.544 c 0.028,-0.033 0.099,0.008 0.127,0.073 l 1.337,3.087 c 0.028,0.065 -0.007,0.106 -0.064,0.073 l -2.674,-1.544 c -0.056,-0.031 -0.092,-0.112 -0.063,-0.145 z"
   id="path27" />
			<path
   style="fill:#3a322e"
   d="m 193.795,169.532 c -0.032,-0.018 -0.058,-0.058 -0.061,-0.091 l -0.073,-0.939 c -0.028,-0.331 0.449,-0.024 0.423,0.244 l -0.073,0.854 c -0.003,0.03 -0.029,0.039 -0.061,0.021 z m 0.078,0.245 c -0.098,-0.057 -0.178,-0.023 -0.178,0.075 0,0.099 0.08,0.224 0.178,0.281 0.098,0.057 0.178,0.023 0.178,-0.075 0,-0.098 -0.08,-0.225 -0.178,-0.281 z"
   id="path28" />
		</g>
		<g
   id="g29">
			<polygon
   style="fill:#3a322e"
   points="192.297,178.899 192.297,173.429 195.502,175.279 195.502,180.749 "
   id="polygon28" />
			<polygon
   style="fill:#db9d12"
   points="195.365,180.533 192.435,178.841 192.435,173.645 195.365,175.337 "
   id="polygon29" />
			<path
   style="fill:#3a322e"
   d="m 194.447,175.6 -1.136,-0.656 v -0.129 l 1.136,0.656 z m 0.475,0.918 -2.087,-1.205 v 0.129 l 2.087,1.205 z m 0,0.504 -2.087,-1.205 v -0.129 l 2.087,1.205 z m 0,0.375 -2.087,-1.205 v -0.129 l 2.087,1.205 z m 0,0.375 -2.087,-1.205 v -0.129 l 2.087,1.205 z m 0,0.375 -2.087,-1.205 v -0.129 l 2.087,1.205 z m 0,0.376 -2.087,-1.205 v -0.129 l 2.087,1.205 z m 0,0.375 -2.087,-1.205 v -0.129 l 2.087,1.205 z m 0,0.375 -2.087,-1.205 v -0.129 l 2.087,1.205 z m 0,0.375 -2.087,-1.205 v -0.129 l 2.087,1.205 z"
   id="path29" />
		</g>
	</g>
	<path
   style="fill:#3a322e"
   d="m 218.93,137.068 v 1.882 c 4.716,2.727 4.235,5.434 4.43,8.766 0,0 -0.018,0.41 -0.409,0.647 -0.304,0.184 -0.705,0.165 -1.154,-0.081 l -1.764,-1.01 c -0.114,-0.066 -0.256,-0.026 -0.321,0.087 -0.064,0.113 -0.026,0.256 0.087,0.321 l 0.045,0.026 c -0.053,0.018 -0.102,0.051 -0.132,0.104 -0.064,0.113 -0.026,0.256 0.087,0.321 l 0.047,0.027 c -0.054,0.017 -0.104,0.051 -0.134,0.105 -0.064,0.113 -0.026,0.256 0.087,0.321 l 0.046,0.026 c -0.053,0.017 -0.103,0.05 -0.133,0.104 -0.064,0.113 -0.026,0.256 0.087,0.321 l 1.788,1.023 c 0.309,0.17 0.62,0.255 0.912,0.255 0.256,0 0.495,-0.066 0.704,-0.197 0.471,-0.298 0.686,-0.877 0.677,-1.592 -0.048,-4.071 0.7,-8.34 -4.95,-11.456 z"
   id="path30" />
</g>











</svg>
